<svg width="1437" height="141" viewBox="0 0 1437 141" fill="none" xmlns="http://www.w3.org/2000/svg">
<path d="M1116.62 139L815.125 1M1116.62 139L1441 139M1116.62 139L705.875 139L311.625 139M815.125 1L1034.62 1M815.125 1H705.875L566.625 1M311.625 139L566.625 1M311.625 139L1.125 141M566.625 1L358.125 1M1441 139L1336.12 104.5M1441 139V104.5M1034.62 1L1135.12 35.5M1034.62 1L1275.12 1M358.125 1L269.875 35.5M358.125 1L139.625 1M1.125 141L93.375 104.5M1.125 141V104.5M1235.62 70L181.625 70M1235.62 70L1336.12 104.5M1235.62 70L1135.12 35.5M1235.62 70L1441 70M181.625 70L93.375 104.5M181.625 70L269.875 35.5M181.625 70L1.125 70M1336.12 104.5L93.375 104.5M1336.12 104.5L1441 104.5M93.375 104.5H1.125M1135.12 35.5L269.875 35.5M1135.12 35.5L1441 35.5M269.875 35.5L1.125 35.5M1.125 35.5V1H139.625M1.125 35.5V70M1.125 70V104.5M1441 104.5V70M1441 70V52.75M1441 35.5V1L1275.12 1M1441 35.5V52.75M1275.12 1L1441 52.75M139.625 1L1.125 46.5" stroke="url(#paint0_linear_10_1461)"/>
<defs>
<linearGradient id="paint0_linear_10_1461" x1="720.875" y1="139" x2="721.125" y2="-33" gradientUnits="userSpaceOnUse">
<stop stop-color="#ABBABA"/>
<stop offset="1" stop-color="#E3E8E8" stop-opacity="0"/>
</linearGradient>
</defs>
</svg>
