<svg width="1440" height="140" viewBox="0 0 1440 140" fill="none" xmlns="http://www.w3.org/2000/svg">
<path d="M324.5 1L626 139M324.5 1H0.125M324.5 1H735.25H1129.5M626 139H406.5M626 139H735.25H874.5M1129.5 1L874.5 139M1129.5 1L1440 -1M874.5 139H1083M0.125 1L105 35.5M0.125 1V35.5M406.5 139L306 104.5M406.5 139H166M1083 139L1171.25 104.5M1083 139H1301.5M1440 -1L1347.75 35.5M1440 -1V35.5M205.5 70H1259.5M205.5 70L105 35.5M205.5 70L306 104.5M205.5 70H0.125M1259.5 70L1347.75 35.5M1259.5 70L1171.25 104.5M1259.5 70H1440M105 35.5H1347.75M105 35.5H0.125M1347.75 35.5H1440M306 104.5H1171.25M306 104.5H0.125M1171.25 104.5H1440M1440 104.5V139H1301.5M1440 104.5V70M1440 70V35.5M0.125 35.5V70M0.125 70V87.25M0.125 104.5V139H166M0.125 104.5V87.25M166 139L0.125 87.25M1301.5 139L1440 93.5" stroke="url(#paint0_linear_10_1460)"/>
<defs>
<linearGradient id="paint0_linear_10_1460" x1="720.25" y1="1" x2="720" y2="173" gradientUnits="userSpaceOnUse">
<stop stop-color="#ABBABA"/>
<stop offset="1" stop-color="#E3E8E8" stop-opacity="0"/>
</linearGradient>
</defs>
</svg>
