<svg width="1440" height="755" viewBox="0 0 1440 755" fill="none" xmlns="http://www.w3.org/2000/svg">
<g clip-path="url(#clip0_0_4965)">
<rect x="0.504202" y="0.504202" width="67.563" height="67.563" fill="white" stroke="#F5F5F5" stroke-width="1.0084"/>
<rect x="69.0745" y="0.504202" width="67.563" height="67.563" fill="white" stroke="#F5F5F5" stroke-width="1.0084"/>
<rect x="137.647" y="0.504202" width="67.563" height="67.563" fill="white" stroke="#F5F5F5" stroke-width="1.0084"/>
<rect x="206.219" y="0.504202" width="67.563" height="67.563" fill="white" stroke="#F5F5F5" stroke-width="1.0084"/>
<rect x="274.789" y="0.504202" width="67.563" height="67.563" fill="white" stroke="#F5F5F5" stroke-width="1.0084"/>
<rect x="343.362" y="0.504202" width="67.563" height="67.563" fill="white" stroke="#F5F5F5" stroke-width="1.0084"/>
<rect x="411.934" y="0.504202" width="67.563" height="67.563" fill="white" stroke="#F5F5F5" stroke-width="1.0084"/>
<rect x="480.504" y="0.504202" width="67.563" height="67.563" fill="white" stroke="#F5F5F5" stroke-width="1.0084"/>
<rect x="549.075" y="0.504202" width="67.563" height="67.563" fill="white" stroke="#F5F5F5" stroke-width="1.0084"/>
<rect x="617.647" y="0.504202" width="67.563" height="67.563" fill="white" stroke="#F5F5F5" stroke-width="1.0084"/>
<rect x="686.218" y="0.504202" width="67.563" height="67.563" fill="white" stroke="#F5F5F5" stroke-width="1.0084"/>
<rect x="754.789" y="0.504202" width="67.563" height="67.563" fill="white" stroke="#F5F5F5" stroke-width="1.0084"/>
<rect x="823.362" y="0.504202" width="67.563" height="67.563" fill="white" stroke="#F5F5F5" stroke-width="1.0084"/>
<rect x="891.933" y="0.504202" width="67.563" height="67.563" fill="white" stroke="#F5F5F5" stroke-width="1.0084"/>
<rect x="960.504" y="0.504202" width="67.563" height="67.563" fill="white" stroke="#F5F5F5" stroke-width="1.0084"/>
<rect x="1029.08" y="0.504202" width="67.563" height="67.563" fill="white" stroke="#F5F5F5" stroke-width="1.0084"/>
<rect x="1097.65" y="0.504202" width="67.563" height="67.563" fill="white" stroke="#F5F5F5" stroke-width="1.0084"/>
<rect x="1166.22" y="0.504202" width="67.563" height="67.563" fill="white" stroke="#F5F5F5" stroke-width="1.0084"/>
<rect x="1234.79" y="0.504202" width="67.563" height="67.563" fill="white" stroke="#F5F5F5" stroke-width="1.0084"/>
<rect x="1303.36" y="0.504202" width="67.563" height="67.563" fill="white" stroke="#F5F5F5" stroke-width="1.0084"/>
<rect x="1371.93" y="0.504202" width="67.563" height="67.563" fill="white" stroke="#F5F5F5" stroke-width="1.0084"/>
<rect x="0.504202" y="69.0755" width="67.563" height="67.563" fill="white" stroke="#F5F5F5" stroke-width="1.0084"/>
<rect x="69.0745" y="69.0755" width="67.563" height="67.563" fill="#F6FDF9" stroke="#F5F5F5" stroke-width="1.0084"/>
<rect x="137.647" y="69.0755" width="67.563" height="67.563" fill="white" stroke="#F5F5F5" stroke-width="1.0084"/>
<rect x="206.219" y="69.0755" width="67.563" height="67.563" fill="white" stroke="#F5F5F5" stroke-width="1.0084"/>
<rect x="274.789" y="69.0755" width="67.563" height="67.563" fill="white" stroke="#F5F5F5" stroke-width="1.0084"/>
<rect x="343.362" y="69.0755" width="67.563" height="67.563" fill="white" stroke="#F5F5F5" stroke-width="1.0084"/>
<rect x="411.934" y="69.0755" width="67.563" height="67.563" fill="white" stroke="#F5F5F5" stroke-width="1.0084"/>
<rect x="480.504" y="69.0755" width="67.563" height="67.563" fill="white" stroke="#F5F5F5" stroke-width="1.0084"/>
<rect x="549.075" y="69.0755" width="67.563" height="67.563" fill="white" stroke="#F5F5F5" stroke-width="1.0084"/>
<rect x="617.647" y="69.0755" width="67.563" height="67.563" fill="white" stroke="#F5F5F5" stroke-width="1.0084"/>
<rect x="686.218" y="69.0755" width="67.563" height="67.563" fill="white" stroke="#F5F5F5" stroke-width="1.0084"/>
<rect x="754.789" y="69.0755" width="67.563" height="67.563" fill="#F6FDF9" stroke="#F5F5F5" stroke-width="1.0084"/>
<rect x="823.362" y="69.0755" width="67.563" height="67.563" fill="white" stroke="#F5F5F5" stroke-width="1.0084"/>
<rect x="891.933" y="69.0755" width="67.563" height="67.563" fill="white" stroke="#F5F5F5" stroke-width="1.0084"/>
<rect x="960.504" y="69.0755" width="67.563" height="67.563" fill="white" stroke="#F5F5F5" stroke-width="1.0084"/>
<rect x="1029.08" y="69.0755" width="67.563" height="67.563" fill="white" stroke="#F5F5F5" stroke-width="1.0084"/>
<rect x="1097.65" y="69.0755" width="67.563" height="67.563" fill="white" stroke="#F5F5F5" stroke-width="1.0084"/>
<rect x="1166.22" y="69.0755" width="67.563" height="67.563" fill="white" stroke="#F5F5F5" stroke-width="1.0084"/>
<rect x="1234.79" y="69.0755" width="67.563" height="67.563" fill="white" stroke="#F5F5F5" stroke-width="1.0084"/>
<rect x="1303.36" y="69.0755" width="67.563" height="67.563" fill="white" stroke="#F5F5F5" stroke-width="1.0084"/>
<rect x="1371.93" y="69.0755" width="67.563" height="67.563" fill="white" stroke="#F5F5F5" stroke-width="1.0084"/>
<rect x="0.504202" y="137.647" width="67.563" height="67.563" fill="white" stroke="#F5F5F5" stroke-width="1.0084"/>
<rect x="69.0745" y="137.647" width="67.563" height="67.563" fill="white" stroke="#F5F5F5" stroke-width="1.0084"/>
<rect x="137.647" y="137.647" width="67.563" height="67.563" fill="white" stroke="#F5F5F5" stroke-width="1.0084"/>
<rect x="206.219" y="137.647" width="67.563" height="67.563" fill="white" stroke="#F5F5F5" stroke-width="1.0084"/>
<rect x="274.789" y="137.647" width="67.563" height="67.563" fill="white" stroke="#F5F5F5" stroke-width="1.0084"/>
<rect x="343.362" y="137.647" width="67.563" height="67.563" fill="white" stroke="#F5F5F5" stroke-width="1.0084"/>
<rect x="411.934" y="137.647" width="67.563" height="67.563" fill="white" stroke="#F5F5F5" stroke-width="1.0084"/>
<rect x="480.504" y="137.647" width="67.563" height="67.563" fill="white" stroke="#F5F5F5" stroke-width="1.0084"/>
<rect x="549.075" y="137.647" width="67.563" height="67.563" fill="white" stroke="#F5F5F5" stroke-width="1.0084"/>
<rect x="617.647" y="137.647" width="67.563" height="67.563" fill="white" stroke="#F5F5F5" stroke-width="1.0084"/>
<rect x="686.218" y="137.647" width="67.563" height="67.563" fill="white" stroke="#F5F5F5" stroke-width="1.0084"/>
<rect x="754.789" y="137.647" width="67.563" height="67.563" fill="white" stroke="#F5F5F5" stroke-width="1.0084"/>
<rect x="823.362" y="137.647" width="67.563" height="67.563" fill="white" stroke="#F5F5F5" stroke-width="1.0084"/>
<rect x="891.933" y="137.647" width="67.563" height="67.563" fill="white" stroke="#F5F5F5" stroke-width="1.0084"/>
<rect x="960.504" y="137.647" width="67.563" height="67.563" fill="white" stroke="#F5F5F5" stroke-width="1.0084"/>
<rect x="1029.08" y="137.647" width="67.563" height="67.563" fill="white" stroke="#F5F5F5" stroke-width="1.0084"/>
<rect x="1097.65" y="137.647" width="67.563" height="67.563" fill="#F6FDF9" stroke="#F5F5F5" stroke-width="1.0084"/>
<rect x="1166.22" y="137.647" width="67.563" height="67.563" fill="white" stroke="#F5F5F5" stroke-width="1.0084"/>
<rect x="1234.79" y="137.647" width="67.563" height="67.563" fill="white" stroke="#F5F5F5" stroke-width="1.0084"/>
<rect x="1303.36" y="137.647" width="67.563" height="67.563" fill="white" stroke="#F5F5F5" stroke-width="1.0084"/>
<rect x="1371.93" y="137.647" width="67.563" height="67.563" fill="white" stroke="#F5F5F5" stroke-width="1.0084"/>
<rect x="0.504202" y="206.219" width="67.563" height="67.563" fill="white" stroke="#F5F5F5" stroke-width="1.0084"/>
<rect x="69.0745" y="206.219" width="67.563" height="67.563" fill="white" stroke="#F5F5F5" stroke-width="1.0084"/>
<rect x="137.647" y="206.219" width="67.563" height="67.563" fill="white" stroke="#F5F5F5" stroke-width="1.0084"/>
<rect x="206.219" y="206.219" width="67.563" height="67.563" fill="white" stroke="#F5F5F5" stroke-width="1.0084"/>
<rect x="274.789" y="206.219" width="67.563" height="67.563" fill="#F8FDFA" stroke="#F5F5F5" stroke-width="1.0084"/>
<rect x="343.362" y="206.219" width="67.563" height="67.563" fill="white" stroke="#F5F5F5" stroke-width="1.0084"/>
<rect x="411.932" y="206.219" width="67.563" height="67.563" fill="white" stroke="#F5F5F5" stroke-width="1.0084"/>
<rect x="480.504" y="206.219" width="67.563" height="67.563" fill="white" stroke="#F5F5F5" stroke-width="1.0084"/>
<rect x="549.075" y="206.219" width="67.563" height="67.563" fill="#F8FDFA" stroke="#F5F5F5" stroke-width="1.0084"/>
<rect x="617.647" y="206.219" width="67.563" height="67.563" fill="white" stroke="#F5F5F5" stroke-width="1.0084"/>
<rect x="686.218" y="206.219" width="67.563" height="67.563" fill="white" stroke="#F5F5F5" stroke-width="1.0084"/>
<rect x="754.789" y="206.219" width="67.563" height="67.563" fill="white" stroke="#F5F5F5" stroke-width="1.0084"/>
<rect x="823.362" y="206.219" width="67.563" height="67.563" fill="white" stroke="#F5F5F5" stroke-width="1.0084"/>
<rect x="891.933" y="206.219" width="67.563" height="67.563" fill="#F6FDF9" stroke="#F5F5F5" stroke-width="1.0084"/>
<rect x="960.504" y="206.219" width="67.563" height="67.563" fill="white" stroke="#F5F5F5" stroke-width="1.0084"/>
<rect x="1029.08" y="206.219" width="67.563" height="67.563" fill="white" stroke="#F5F5F5" stroke-width="1.0084"/>
<rect x="1097.65" y="206.219" width="67.563" height="67.563" fill="white" stroke="#F5F5F5" stroke-width="1.0084"/>
<rect x="1166.22" y="206.219" width="67.563" height="67.563" fill="#F8FDFA" stroke="#F5F5F5" stroke-width="1.0084"/>
<rect x="1234.79" y="206.219" width="67.563" height="67.563" fill="white" stroke="#F5F5F5" stroke-width="1.0084"/>
<rect x="1303.36" y="206.219" width="67.563" height="67.563" fill="white" stroke="#F5F5F5" stroke-width="1.0084"/>
<rect x="1371.93" y="206.219" width="67.563" height="67.563" fill="white" stroke="#F5F5F5" stroke-width="1.0084"/>
<rect x="0.504202" y="274.79" width="67.563" height="67.563" fill="white" stroke="#F5F5F5" stroke-width="1.0084"/>
<rect x="69.0765" y="274.79" width="67.563" height="67.563" fill="white" stroke="#F5F5F5" stroke-width="1.0084"/>
<rect x="137.647" y="274.79" width="67.563" height="67.563" fill="white" stroke="#F5F5F5" stroke-width="1.0084"/>
<rect x="206.219" y="274.79" width="67.563" height="67.563" fill="white" stroke="#F5F5F5" stroke-width="1.0084"/>
<rect x="274.789" y="274.79" width="67.563" height="67.563" fill="#F6FDF9" stroke="#F5F5F5" stroke-width="1.0084"/>
<rect x="343.362" y="274.79" width="67.563" height="67.563" fill="white" stroke="#F5F5F5" stroke-width="1.0084"/>
<rect x="411.932" y="274.79" width="67.563" height="67.563" fill="white" stroke="#F5F5F5" stroke-width="1.0084"/>
<rect x="480.504" y="274.79" width="67.563" height="67.563" fill="white" stroke="#F5F5F5" stroke-width="1.0084"/>
<rect x="549.075" y="274.79" width="67.563" height="67.563" fill="white" stroke="#F5F5F5" stroke-width="1.0084"/>
<rect x="617.647" y="274.79" width="67.563" height="67.563" fill="white" stroke="#F5F5F5" stroke-width="1.0084"/>
<rect x="686.218" y="274.79" width="67.563" height="67.563" fill="white" stroke="#F5F5F5" stroke-width="1.0084"/>
<rect x="754.789" y="274.79" width="67.563" height="67.563" fill="white" stroke="#F5F5F5" stroke-width="1.0084"/>
<rect x="823.362" y="274.79" width="67.563" height="67.563" fill="white" stroke="#F5F5F5" stroke-width="1.0084"/>
<rect x="891.933" y="274.79" width="67.563" height="67.563" fill="white" stroke="#F5F5F5" stroke-width="1.0084"/>
<rect x="960.504" y="274.79" width="67.563" height="67.563" fill="white" stroke="#F5F5F5" stroke-width="1.0084"/>
<rect x="1029.08" y="274.79" width="67.563" height="67.563" fill="white" stroke="#F5F5F5" stroke-width="1.0084"/>
<rect x="1097.65" y="274.79" width="67.563" height="67.563" fill="white" stroke="#F5F5F5" stroke-width="1.0084"/>
<rect x="1166.22" y="274.79" width="67.563" height="67.563" fill="white" stroke="#F5F5F5" stroke-width="1.0084"/>
<rect x="1234.79" y="274.79" width="67.563" height="67.563" fill="white" stroke="#F5F5F5" stroke-width="1.0084"/>
<rect x="1303.36" y="274.79" width="67.563" height="67.563" fill="white" stroke="#F5F5F5" stroke-width="1.0084"/>
<rect x="1371.93" y="274.79" width="67.563" height="67.563" fill="white" stroke="#F5F5F5" stroke-width="1.0084"/>
<rect x="0.504202" y="343.361" width="67.563" height="67.563" fill="white" stroke="#F5F5F5" stroke-width="1.0084"/>
<rect x="69.0765" y="343.361" width="67.563" height="67.563" fill="white" stroke="#F5F5F5" stroke-width="1.0084"/>
<rect x="137.647" y="343.361" width="67.563" height="67.563" fill="white" stroke="#F5F5F5" stroke-width="1.0084"/>
<rect x="206.219" y="343.361" width="67.563" height="67.563" fill="white" stroke="#F5F5F5" stroke-width="1.0084"/>
<rect x="274.789" y="343.361" width="67.563" height="67.563" fill="white" stroke="#F5F5F5" stroke-width="1.0084"/>
<rect x="343.362" y="343.361" width="67.563" height="67.563" fill="white" stroke="#F5F5F5" stroke-width="1.0084"/>
<rect x="411.932" y="343.361" width="67.563" height="67.563" fill="white" stroke="#F5F5F5" stroke-width="1.0084"/>
<rect x="480.504" y="343.361" width="67.563" height="67.563" fill="white" stroke="#F5F5F5" stroke-width="1.0084"/>
<rect x="549.075" y="343.361" width="67.563" height="67.563" fill="white" stroke="#F5F5F5" stroke-width="1.0084"/>
<rect x="617.647" y="343.361" width="67.563" height="67.563" fill="white" stroke="#F5F5F5" stroke-width="1.0084"/>
<rect x="686.218" y="343.361" width="67.563" height="67.563" fill="white" stroke="#F5F5F5" stroke-width="1.0084"/>
<rect x="754.789" y="343.361" width="67.563" height="67.563" fill="white" stroke="#F5F5F5" stroke-width="1.0084"/>
<rect x="823.362" y="343.361" width="67.563" height="67.563" fill="white" stroke="#F5F5F5" stroke-width="1.0084"/>
<rect x="891.933" y="343.361" width="67.563" height="67.563" fill="white" stroke="#F5F5F5" stroke-width="1.0084"/>
<rect x="960.504" y="343.361" width="67.563" height="67.563" fill="white" stroke="#F5F5F5" stroke-width="1.0084"/>
<rect x="1029.08" y="343.361" width="67.563" height="67.563" fill="white" stroke="#F5F5F5" stroke-width="1.0084"/>
<rect x="1097.65" y="343.361" width="67.563" height="67.563" fill="white" stroke="#F5F5F5" stroke-width="1.0084"/>
<rect x="1166.22" y="343.361" width="67.563" height="67.563" fill="white" stroke="#F5F5F5" stroke-width="1.0084"/>
<rect x="1234.79" y="343.361" width="67.563" height="67.563" fill="white" stroke="#F5F5F5" stroke-width="1.0084"/>
<rect x="1303.36" y="343.361" width="67.563" height="67.563" fill="white" stroke="#F5F5F5" stroke-width="1.0084"/>
<rect x="1371.93" y="343.361" width="67.563" height="67.563" fill="white" stroke="#F5F5F5" stroke-width="1.0084"/>
<rect x="0.504202" y="411.933" width="67.563" height="67.563" fill="white" stroke="#F5F5F5" stroke-width="1.0084"/>
<rect x="69.0765" y="411.933" width="67.563" height="67.563" fill="white" stroke="#F5F5F5" stroke-width="1.0084"/>
<rect x="137.647" y="411.933" width="67.563" height="67.563" fill="white" stroke="#F5F5F5" stroke-width="1.0084"/>
<rect x="206.219" y="411.933" width="67.563" height="67.563" fill="white" stroke="#F5F5F5" stroke-width="1.0084"/>
<rect x="274.789" y="411.933" width="67.563" height="67.563" fill="white" stroke="#F5F5F5" stroke-width="1.0084"/>
<rect x="343.362" y="411.933" width="67.563" height="67.563" fill="white" stroke="#F5F5F5" stroke-width="1.0084"/>
<rect x="411.932" y="411.933" width="67.563" height="67.563" fill="white" stroke="#F5F5F5" stroke-width="1.0084"/>
<rect x="480.504" y="411.933" width="67.563" height="67.563" fill="white" stroke="#F5F5F5" stroke-width="1.0084"/>
<rect x="549.075" y="411.933" width="67.563" height="67.563" fill="white" stroke="#F5F5F5" stroke-width="1.0084"/>
<rect x="617.647" y="411.933" width="67.563" height="67.563" fill="white" stroke="#F5F5F5" stroke-width="1.0084"/>
<rect x="686.218" y="411.933" width="67.563" height="67.563" fill="white" stroke="#F5F5F5" stroke-width="1.0084"/>
<rect x="754.789" y="411.933" width="67.563" height="67.563" fill="white" stroke="#F5F5F5" stroke-width="1.0084"/>
<rect x="823.362" y="411.933" width="67.563" height="67.563" fill="white" stroke="#F5F5F5" stroke-width="1.0084"/>
<rect x="891.933" y="411.933" width="67.563" height="67.563" fill="white" stroke="#F5F5F5" stroke-width="1.0084"/>
<rect x="960.504" y="411.933" width="67.563" height="67.563" fill="white" stroke="#F5F5F5" stroke-width="1.0084"/>
<rect x="1029.08" y="411.933" width="67.563" height="67.563" fill="white" stroke="#F5F5F5" stroke-width="1.0084"/>
<rect x="1097.65" y="411.933" width="67.563" height="67.563" fill="white" stroke="#F5F5F5" stroke-width="1.0084"/>
<rect x="1166.22" y="411.933" width="67.563" height="67.563" fill="white" stroke="#F5F5F5" stroke-width="1.0084"/>
<rect x="1234.79" y="411.933" width="67.563" height="67.563" fill="white" stroke="#F5F5F5" stroke-width="1.0084"/>
<rect x="1303.36" y="411.933" width="67.563" height="67.563" fill="white" stroke="#F5F5F5" stroke-width="1.0084"/>
<rect x="1371.93" y="411.933" width="67.563" height="67.563" fill="white" stroke="#F5F5F5" stroke-width="1.0084"/>
<rect x="0.504202" y="480.504" width="67.563" height="67.563" fill="white" stroke="#F5F5F5" stroke-width="1.0084"/>
<rect x="69.0765" y="480.504" width="67.563" height="67.563" fill="white" stroke="#F5F5F5" stroke-width="1.0084"/>
<rect x="137.647" y="480.504" width="67.563" height="67.563" fill="white" stroke="#F5F5F5" stroke-width="1.0084"/>
<rect x="206.219" y="480.504" width="67.563" height="67.563" fill="white" stroke="#F5F5F5" stroke-width="1.0084"/>
<rect x="274.789" y="480.504" width="67.563" height="67.563" fill="white" stroke="#F5F5F5" stroke-width="1.0084"/>
<rect x="343.362" y="480.504" width="67.563" height="67.563" fill="white" stroke="#F5F5F5" stroke-width="1.0084"/>
<rect x="411.932" y="480.504" width="67.563" height="67.563" fill="white" stroke="#F5F5F5" stroke-width="1.0084"/>
<rect x="480.504" y="480.504" width="67.563" height="67.563" fill="white" stroke="#F5F5F5" stroke-width="1.0084"/>
<rect x="549.075" y="480.504" width="67.563" height="67.563" fill="white" stroke="#F5F5F5" stroke-width="1.0084"/>
<rect x="617.647" y="480.504" width="67.563" height="67.563" fill="white" stroke="#F5F5F5" stroke-width="1.0084"/>
<rect x="686.218" y="480.504" width="67.563" height="67.563" fill="white" stroke="#F5F5F5" stroke-width="1.0084"/>
<rect x="754.789" y="480.504" width="67.563" height="67.563" fill="white" stroke="#F5F5F5" stroke-width="1.0084"/>
<rect x="823.362" y="480.504" width="67.563" height="67.563" fill="white" stroke="#F5F5F5" stroke-width="1.0084"/>
<rect x="891.933" y="480.504" width="67.563" height="67.563" fill="white" stroke="#F5F5F5" stroke-width="1.0084"/>
<rect x="960.504" y="480.504" width="67.563" height="67.563" fill="white" stroke="#F5F5F5" stroke-width="1.0084"/>
<rect x="1029.08" y="480.504" width="67.563" height="67.563" fill="white" stroke="#F5F5F5" stroke-width="1.0084"/>
<rect x="1097.65" y="480.504" width="67.563" height="67.563" fill="white" stroke="#F5F5F5" stroke-width="1.0084"/>
<rect x="1166.22" y="480.504" width="67.563" height="67.563" fill="white" stroke="#F5F5F5" stroke-width="1.0084"/>
<rect x="1234.79" y="480.504" width="67.563" height="67.563" fill="white" stroke="#F5F5F5" stroke-width="1.0084"/>
<rect x="1303.36" y="480.504" width="67.563" height="67.563" fill="white" stroke="#F5F5F5" stroke-width="1.0084"/>
<rect x="1371.93" y="480.504" width="67.563" height="67.563" fill="white" stroke="#F5F5F5" stroke-width="1.0084"/>
<rect x="0.504202" y="549.075" width="67.563" height="67.563" fill="white" stroke="#F5F5F5" stroke-width="1.0084"/>
<rect x="69.0765" y="549.075" width="67.563" height="67.563" fill="white" stroke="#F5F5F5" stroke-width="1.0084"/>
<rect x="137.647" y="549.075" width="67.563" height="67.563" fill="white" stroke="#F5F5F5" stroke-width="1.0084"/>
<rect x="206.219" y="549.075" width="67.563" height="67.563" fill="white" stroke="#F5F5F5" stroke-width="1.0084"/>
<rect x="274.789" y="549.075" width="67.563" height="67.563" fill="white" stroke="#F5F5F5" stroke-width="1.0084"/>
<rect x="343.362" y="549.075" width="67.563" height="67.563" fill="white" stroke="#F5F5F5" stroke-width="1.0084"/>
<rect x="411.932" y="549.075" width="67.563" height="67.563" fill="white" stroke="#F5F5F5" stroke-width="1.0084"/>
<rect x="480.504" y="549.075" width="67.563" height="67.563" fill="white" stroke="#F5F5F5" stroke-width="1.0084"/>
<rect x="549.075" y="549.075" width="67.563" height="67.563" fill="white" stroke="#F5F5F5" stroke-width="1.0084"/>
<rect x="617.647" y="549.075" width="67.563" height="67.563" fill="white" stroke="#F5F5F5" stroke-width="1.0084"/>
<rect x="686.218" y="549.075" width="67.563" height="67.563" fill="white" stroke="#F5F5F5" stroke-width="1.0084"/>
<rect x="754.789" y="549.075" width="67.563" height="67.563" fill="white" stroke="#F5F5F5" stroke-width="1.0084"/>
<rect x="823.362" y="549.075" width="67.563" height="67.563" fill="white" stroke="#F5F5F5" stroke-width="1.0084"/>
<rect x="891.933" y="549.075" width="67.563" height="67.563" fill="white" stroke="#F5F5F5" stroke-width="1.0084"/>
<rect x="960.504" y="549.075" width="67.563" height="67.563" fill="white" stroke="#F5F5F5" stroke-width="1.0084"/>
<rect x="1029.08" y="549.075" width="67.563" height="67.563" fill="white" stroke="#F5F5F5" stroke-width="1.0084"/>
<rect x="1097.65" y="549.075" width="67.563" height="67.563" fill="white" stroke="#F5F5F5" stroke-width="1.0084"/>
<rect x="1166.22" y="549.075" width="67.563" height="67.563" fill="white" stroke="#F5F5F5" stroke-width="1.0084"/>
<rect x="1234.79" y="549.075" width="67.563" height="67.563" fill="white" stroke="#F5F5F5" stroke-width="1.0084"/>
<rect x="1303.36" y="549.075" width="67.563" height="67.563" fill="white" stroke="#F5F5F5" stroke-width="1.0084"/>
<rect x="1371.93" y="549.075" width="67.563" height="67.563" fill="white" stroke="#F5F5F5" stroke-width="1.0084"/>
<rect x="0.504202" y="617.647" width="67.563" height="67.563" fill="white" stroke="#F5F5F5" stroke-width="1.0084"/>
<rect x="69.0765" y="617.647" width="67.563" height="67.563" fill="white" stroke="#F5F5F5" stroke-width="1.0084"/>
<rect x="137.647" y="617.647" width="67.563" height="67.563" fill="white" stroke="#F5F5F5" stroke-width="1.0084"/>
<rect x="206.219" y="617.647" width="67.563" height="67.563" fill="white" stroke="#F5F5F5" stroke-width="1.0084"/>
<rect x="274.789" y="617.647" width="67.563" height="67.563" fill="white" stroke="#F5F5F5" stroke-width="1.0084"/>
<rect x="343.362" y="617.647" width="67.563" height="67.563" fill="white" stroke="#F5F5F5" stroke-width="1.0084"/>
<rect x="411.932" y="617.647" width="67.563" height="67.563" fill="white" stroke="#F5F5F5" stroke-width="1.0084"/>
<rect x="480.504" y="617.647" width="67.563" height="67.563" fill="white" stroke="#F5F5F5" stroke-width="1.0084"/>
<rect x="549.075" y="617.647" width="67.563" height="67.563" fill="white" stroke="#F5F5F5" stroke-width="1.0084"/>
<rect x="617.647" y="617.647" width="67.563" height="67.563" fill="white" stroke="#F5F5F5" stroke-width="1.0084"/>
<rect x="686.218" y="617.647" width="67.563" height="67.563" fill="white" stroke="#F5F5F5" stroke-width="1.0084"/>
<rect x="754.789" y="617.647" width="67.563" height="67.563" fill="white" stroke="#F5F5F5" stroke-width="1.0084"/>
<rect x="823.362" y="617.647" width="67.563" height="67.563" fill="white" stroke="#F5F5F5" stroke-width="1.0084"/>
<rect x="891.933" y="617.647" width="67.563" height="67.563" fill="white" stroke="#F5F5F5" stroke-width="1.0084"/>
<rect x="960.504" y="617.647" width="67.563" height="67.563" fill="white" stroke="#F5F5F5" stroke-width="1.0084"/>
<rect x="1029.08" y="617.647" width="67.563" height="67.563" fill="white" stroke="#F5F5F5" stroke-width="1.0084"/>
<rect x="1097.65" y="617.647" width="67.563" height="67.563" fill="white" stroke="#F5F5F5" stroke-width="1.0084"/>
<rect x="1166.22" y="617.647" width="67.563" height="67.563" fill="white" stroke="#F5F5F5" stroke-width="1.0084"/>
<rect x="1234.79" y="617.647" width="67.563" height="67.563" fill="white" stroke="#F5F5F5" stroke-width="1.0084"/>
<rect x="1303.36" y="617.647" width="67.563" height="67.563" fill="white" stroke="#F5F5F5" stroke-width="1.0084"/>
<rect x="1371.93" y="617.647" width="67.563" height="67.563" fill="white" stroke="#F5F5F5" stroke-width="1.0084"/>
<rect x="0.504202" y="686.219" width="67.563" height="67.563" fill="white" stroke="#F5F5F5" stroke-width="1.0084"/>
<rect x="69.0765" y="686.219" width="67.563" height="67.563" fill="white" stroke="#F5F5F5" stroke-width="1.0084"/>
<rect x="137.647" y="686.219" width="67.563" height="67.563" fill="white" stroke="#F5F5F5" stroke-width="1.0084"/>
<rect x="206.219" y="686.219" width="67.563" height="67.563" fill="white" stroke="#F5F5F5" stroke-width="1.0084"/>
<rect x="274.789" y="686.219" width="67.563" height="67.563" fill="white" stroke="#F5F5F5" stroke-width="1.0084"/>
<rect x="343.362" y="686.219" width="67.563" height="67.563" fill="white" stroke="#F5F5F5" stroke-width="1.0084"/>
<rect x="411.932" y="686.219" width="67.563" height="67.563" fill="white" stroke="#F5F5F5" stroke-width="1.0084"/>
<rect x="480.504" y="686.219" width="67.563" height="67.563" fill="white" stroke="#F5F5F5" stroke-width="1.0084"/>
<rect x="549.075" y="686.219" width="67.563" height="67.563" fill="white" stroke="#F5F5F5" stroke-width="1.0084"/>
<rect x="617.647" y="686.219" width="67.563" height="67.563" fill="white" stroke="#F5F5F5" stroke-width="1.0084"/>
<rect x="686.218" y="686.219" width="67.563" height="67.563" fill="white" stroke="#F5F5F5" stroke-width="1.0084"/>
<rect x="754.789" y="686.219" width="67.563" height="67.563" fill="white" stroke="#F5F5F5" stroke-width="1.0084"/>
<rect x="823.362" y="686.219" width="67.563" height="67.563" fill="white" stroke="#F5F5F5" stroke-width="1.0084"/>
<rect x="891.933" y="686.219" width="67.563" height="67.563" fill="white" stroke="#F5F5F5" stroke-width="1.0084"/>
<rect x="960.504" y="686.219" width="67.563" height="67.563" fill="white" stroke="#F5F5F5" stroke-width="1.0084"/>
<rect x="1029.08" y="686.219" width="67.563" height="67.563" fill="white" stroke="#F5F5F5" stroke-width="1.0084"/>
<rect x="1097.65" y="686.219" width="67.563" height="67.563" fill="white" stroke="#F5F5F5" stroke-width="1.0084"/>
<rect x="1166.22" y="686.219" width="67.563" height="67.563" fill="white" stroke="#F5F5F5" stroke-width="1.0084"/>
<rect x="1234.79" y="686.219" width="67.563" height="67.563" fill="white" stroke="#F5F5F5" stroke-width="1.0084"/>
<rect x="1303.36" y="686.219" width="67.563" height="67.563" fill="white" stroke="#F5F5F5" stroke-width="1.0084"/>
<rect x="1371.93" y="686.219" width="67.563" height="67.563" fill="white" stroke="#F5F5F5" stroke-width="1.0084"/>
<rect x="478.143" y="105.714" width="3" height="321" rx="1.5" fill="url(#paint0_linear_0_4965)" fill-opacity="0.3"/>
<rect x="28.1426" y="207.714" width="3" height="321" rx="1.5" transform="rotate(-90 28.1426 207.714)" fill="url(#paint1_linear_0_4965)" fill-opacity="0.3"/>
<rect x="1359.14" y="305.714" width="3" height="321" rx="1.5" transform="rotate(90 1359.14 305.714)" fill="url(#paint2_linear_0_4965)" fill-opacity="0.3"/>
<rect x="1032" y="141" width="3" height="321" rx="1.5" transform="rotate(-180 1032 141)" fill="url(#paint3_linear_0_4965)" fill-opacity="0.3"/>
<rect width="1440" height="754" fill="url(#paint4_linear_0_4965)"/>
</g>
<defs>
<linearGradient id="paint0_linear_0_4965" x1="479.643" y1="105.714" x2="479.643" y2="426.714" gradientUnits="userSpaceOnUse">
<stop stop-color="#039635"/>
<stop offset="1" stop-color="white" stop-opacity="0"/>
</linearGradient>
<linearGradient id="paint1_linear_0_4965" x1="29.6426" y1="207.714" x2="29.6426" y2="528.714" gradientUnits="userSpaceOnUse">
<stop stop-color="#039635"/>
<stop offset="1" stop-color="white" stop-opacity="0"/>
</linearGradient>
<linearGradient id="paint2_linear_0_4965" x1="1360.64" y1="305.714" x2="1360.64" y2="626.714" gradientUnits="userSpaceOnUse">
<stop stop-color="#039635"/>
<stop offset="1" stop-color="white" stop-opacity="0"/>
</linearGradient>
<linearGradient id="paint3_linear_0_4965" x1="1033.5" y1="141" x2="1033.5" y2="462" gradientUnits="userSpaceOnUse">
<stop stop-color="#039635"/>
<stop offset="1" stop-color="white" stop-opacity="0"/>
</linearGradient>
<linearGradient id="paint4_linear_0_4965" x1="720" y1="0" x2="720" y2="754" gradientUnits="userSpaceOnUse">
<stop stop-color="white" stop-opacity="0"/>
<stop offset="0.757492" stop-color="white"/>
</linearGradient>
<clipPath id="clip0_0_4965">
<rect width="1440" height="754.286" fill="white"/>
</clipPath>
</defs>
</svg>
