<svg width="52" height="27" viewBox="0 0 52 27" fill="none" xmlns="http://www.w3.org/2000/svg">
<path d="M0.869141 20.7579H5.4894V14.333H8.4721C12.9754 14.333 16.0166 11.5294 16.0166 7.20722C16.0166 2.79741 12.9754 0.0230255 8.4721 0.0230255H0.869141V20.7579ZM5.4894 10.0984V4.25761H8.03347C9.90496 4.25761 11.3378 4.98771 11.3378 7.20722C11.3378 9.42673 9.90496 10.0984 8.03347 10.0984H5.4894Z" fill="#999999"/>
<path d="M24.1244 21.0499C26.8147 21.0499 28.3938 19.5897 28.6277 19.0349H28.7154V20.7579H33.248V5.57179H28.7154V7.29483H28.6277C28.3938 6.73996 26.8147 5.27975 24.1244 5.27975C20.6738 5.27975 16.8724 7.87891 16.8724 13.1648C16.8724 18.4508 20.6738 21.0499 24.1244 21.0499Z" fill="#999999"/>
<path d="M38.4864 26.3067H42.9312L45.2706 20.7579L51.6454 5.57179H47.0251L43.1652 15.4428L39.3052 5.57179H34.6849L41.0012 20.5827L38.4864 26.3067Z" fill="#999999"/>
<path fill-rule="evenodd" clip-rule="evenodd" d="M27.1242 17.217L20.0781 13.1871L27.1242 9.15724V11.3964H33.2423V14.9778H27.1242V17.217Z" fill="white"/>
</svg>
