<svg width="95" height="42" viewBox="0 0 95 42" fill="none" xmlns="http://www.w3.org/2000/svg">
<path d="M7.27491 3.28815H3.59137V18.0223H6.5382V20.2325H3.59137V40.8603H0.644531V1.07803H7.27491V3.28815Z" fill="#999999"/>
<path d="M17.5888 40.8603H14.642L14.2736 31.2831H12.0865L11.6952 40.8603H8.74833L10.9585 1.07803H15.3787L17.5888 40.8603ZM13.1686 2.55145L12.4319 20.2325L12.0865 29.073H14.2736L13.1686 2.55145Z" fill="#999999"/>
<path d="M28.6395 17.2856H25.6926V4.76157C25.6926 4.39322 25.6466 4.09393 25.5545 3.86371C25.4777 3.61814 25.3703 3.43396 25.2322 3.31118C25.094 3.17304 24.9329 3.08096 24.7487 3.03491C24.5799 2.97352 24.4034 2.94282 24.2192 2.94282C24.035 2.94282 23.8508 2.97352 23.6667 3.03491C23.4978 3.08096 23.3444 3.17304 23.2062 3.31118C23.0681 3.43396 22.953 3.61814 22.8609 3.86371C22.7842 4.09393 22.7458 4.39322 22.7458 4.76157V37.1768C22.7458 37.3609 22.7535 37.5835 22.7688 37.8444C22.7842 38.09 22.8379 38.3279 22.93 38.5581C23.0221 38.7883 23.1679 38.9878 23.3674 39.1567C23.5669 39.3101 23.8508 39.3869 24.2192 39.3869C24.5876 39.3869 24.8715 39.3101 25.071 39.1567C25.2705 38.9878 25.4164 38.7883 25.5084 38.5581C25.6005 38.3279 25.6543 38.09 25.6696 37.8444C25.6849 37.5835 25.6926 37.3609 25.6926 37.1768V21.7059H28.6395V37.1768C28.6395 37.3609 28.6164 37.6986 28.5704 38.1897C28.5243 38.6655 28.3632 39.1567 28.0869 39.6631C27.8107 40.1696 27.3732 40.6147 26.7747 40.9984C26.1761 41.3975 25.3243 41.597 24.2192 41.597C23.1141 41.597 22.2623 41.3975 21.6637 40.9984C21.0652 40.6147 20.6277 40.1696 20.3515 39.6631C20.0752 39.1567 19.9141 38.6655 19.868 38.1897C19.822 37.6986 19.799 37.3609 19.799 37.1768V4.76157C19.799 4.05556 19.9294 3.44931 20.1903 2.94282C20.4512 2.42099 20.7889 1.99891 21.2033 1.6766C21.633 1.35429 22.1088 1.1164 22.6307 0.962918C23.1525 0.809437 23.682 0.732697 24.2192 0.732697C24.7871 0.732697 25.3319 0.817111 25.8538 0.98594C26.391 1.15477 26.8668 1.40801 27.2811 1.74567C27.6955 2.08333 28.0255 2.5054 28.2711 3.01189C28.5167 3.51838 28.6395 4.1016 28.6395 4.76157V17.2856Z" fill="#999999"/>
<path d="M39.6901 1.07803V3.28815H36.7433V40.8603H33.7964V3.28815H30.8496V1.07803H39.6901Z" fill="#999999"/>
<path d="M50.7407 37.1768C50.7407 37.3609 50.7177 37.6986 50.6717 38.1897C50.6256 38.6655 50.4645 39.1567 50.1882 39.6631C49.9119 40.1696 49.4745 40.6147 48.8759 40.9984C48.2774 41.3975 47.4255 41.597 46.3205 41.597C45.2154 41.597 44.3636 41.3975 43.765 40.9984C43.1664 40.6147 42.729 40.1696 42.4527 39.6631C42.1765 39.1567 42.0153 38.6655 41.9693 38.1897C41.9232 37.6986 41.9002 37.3609 41.9002 37.1768V4.76157C41.9002 4.63879 41.9079 4.45461 41.9232 4.20904C41.9386 3.96347 41.9846 3.69488 42.0614 3.40327C42.1381 3.0963 42.2686 2.78934 42.4527 2.48238C42.6369 2.16007 42.8902 1.86846 43.2125 1.60754C43.5348 1.34662 43.9492 1.13942 44.4557 0.98594C44.9622 0.817111 45.5838 0.732697 46.3205 0.732697C47.0572 0.732697 47.6788 0.817111 48.1853 0.98594C48.6917 1.13942 49.1061 1.34662 49.4285 1.60754C49.7508 1.86846 50.004 2.16007 50.1882 2.48238C50.3724 2.78934 50.5028 3.0963 50.5796 3.40327C50.6563 3.69488 50.7024 3.96347 50.7177 4.20904C50.733 4.45461 50.7407 4.63879 50.7407 4.76157V37.1768ZM44.847 37.1768C44.847 37.3609 44.8547 37.5835 44.8701 37.8444C44.8854 38.09 44.9391 38.3279 45.0312 38.5581C45.1233 38.7883 45.2691 38.9878 45.4686 39.1567C45.6682 39.3101 45.9521 39.3869 46.3205 39.3869C46.6888 39.3869 46.9728 39.3101 47.1723 39.1567C47.3718 38.9878 47.5176 38.7883 47.6097 38.5581C47.7018 38.3279 47.7555 38.09 47.7709 37.8444C47.7862 37.5835 47.7939 37.3609 47.7939 37.1768V4.76157C47.7939 4.57739 47.7862 4.37787 47.7709 4.163C47.7555 3.94812 47.7018 3.75627 47.6097 3.58744C47.5176 3.40327 47.3718 3.24978 47.1723 3.127C46.9728 3.00421 46.6888 2.94282 46.3205 2.94282C45.9521 2.94282 45.6682 3.00421 45.4686 3.127C45.2691 3.24978 45.1233 3.40327 45.0312 3.58744C44.9391 3.75627 44.8854 3.94812 44.8701 4.163C44.8547 4.37787 44.847 4.57739 44.847 4.76157V37.1768Z" fill="#999999"/>
<path d="M62.5281 17.2856C62.5281 18.3907 62.3439 19.1581 61.9755 19.5878C61.6072 20.0176 61.0546 20.2325 60.3179 20.2325C60.6863 20.2325 61.0086 20.3169 61.2849 20.4857C61.5611 20.6545 61.7913 20.8771 61.9755 21.1533C62.1597 21.4296 62.2978 21.7442 62.3899 22.0972C62.482 22.4503 62.5281 22.8109 62.5281 23.1793V40.8603H59.5812V22.4426C59.5812 22.0742 59.4968 21.7903 59.328 21.5908C59.1591 21.3912 58.9366 21.2454 58.6603 21.1533C58.3841 21.0613 58.0694 21.0075 57.7164 20.9922C57.3634 20.9768 57.0027 20.9692 56.6344 20.9692V40.8603H53.6875V1.07803H56.6344C57.3711 1.07803 58.0925 1.10105 58.7985 1.1471C59.5045 1.17779 60.1337 1.30825 60.6863 1.53847C61.2388 1.76869 61.6839 2.13705 62.0216 2.64353C62.3592 3.13467 62.5281 3.84069 62.5281 4.76157V17.2856ZM59.5812 4.76157C59.5812 4.39322 59.5275 4.10928 59.4201 3.90975C59.328 3.71023 59.1668 3.56442 58.9366 3.47233C58.7064 3.38024 58.3994 3.32652 58.0157 3.31118C57.6474 3.29583 57.1869 3.28815 56.6344 3.28815V19.4957C57.0027 19.4957 57.3634 19.4881 57.7164 19.4727C58.0694 19.4574 58.3841 19.4037 58.6603 19.3116C58.9366 19.2195 59.1591 19.0737 59.328 18.8741C59.4968 18.6746 59.5812 18.3907 59.5812 18.0223V4.76157Z" fill="#999999"/>
<path d="M68.7901 1.07803V40.8603H65.8433V1.07803H68.7901Z" fill="#999999"/>
<path d="M80.2091 40.8603H77.2622L76.8939 31.2831H74.7068L74.3154 40.8603H71.3686L73.5787 1.07803H77.9989L80.2091 40.8603ZM75.7888 2.55145L75.0521 20.2325L74.7068 29.073H76.8939L75.7888 2.55145Z" fill="#999999"/>
<path d="M85.366 1.07803V38.6502H88.3129V40.8603H82.4192V1.07803H85.366Z" fill="#999999"/>
<path d="M94.9432 1.07803L93.4698 34.9666H91.9964L90.523 1.07803H94.9432ZM94.2065 37.1768V40.8603H91.2597V37.1768H94.2065Z" fill="#999999"/>
</svg>
