<svg width="92" height="37" viewBox="0 0 92 37" fill="none" xmlns="http://www.w3.org/2000/svg">
<path d="M43.2469 16.4163H43.9949V35.7533H43.2469V16.4163ZM43.6209 11.0678C43.3466 11.0678 43.1097 10.9681 42.9103 10.7686C42.7357 10.5691 42.6484 10.3447 42.6484 10.0953C42.6484 9.82105 42.7357 9.59664 42.9103 9.4221C43.1097 9.22262 43.3466 9.12288 43.6209 9.12288C43.8702 9.12288 44.0947 9.22262 44.2941 9.4221C44.4936 9.59664 44.5934 9.82105 44.5934 10.0953C44.5934 10.3447 44.4936 10.5691 44.2941 10.7686C44.0947 10.9681 43.8702 11.0678 43.6209 11.0678Z" fill="#999999"/>
<path d="M9.9199 36.0899C8.22433 36.0899 6.5537 35.9029 4.908 35.5289C3.2623 35.1299 1.94075 34.6188 0.943359 33.9954L3.07529 29.1331C3.99788 29.7066 5.09501 30.1679 6.36668 30.517C7.63836 30.8412 8.89757 31.0032 10.1443 31.0032C11.2913 31.0032 12.1017 30.891 12.5755 30.6666C13.0742 30.4173 13.3235 30.0682 13.3235 29.6194C13.3235 29.1705 13.0243 28.8588 12.4258 28.6843C11.8523 28.4848 10.9298 28.2978 9.65808 28.1233C8.03732 27.9238 6.65343 27.662 5.50643 27.3378C4.38437 27.0137 3.41191 26.4152 2.58906 25.5425C1.76621 24.6698 1.35478 23.448 1.35478 21.8771C1.35478 20.5805 1.74127 19.4335 2.51425 18.4361C3.28723 17.4138 4.4093 16.6158 5.88045 16.0423C7.37654 15.4439 9.15938 15.1447 11.229 15.1447C12.7001 15.1447 14.1588 15.2943 15.605 15.5935C17.0513 15.8927 18.2606 16.3166 19.2331 16.8652L17.1011 21.6901C15.3058 20.6927 13.3609 20.194 11.2664 20.194C10.1443 20.194 9.32146 20.3311 8.79783 20.6054C8.2742 20.8548 8.01238 21.1914 8.01238 21.6153C8.01238 22.089 8.29913 22.4257 8.87263 22.6251C9.44613 22.7997 10.3937 22.9867 11.7152 23.1862C13.3858 23.4355 14.7697 23.7223 15.8669 24.0464C16.964 24.3706 17.9115 24.969 18.7094 25.8417C19.5323 26.6895 19.9437 27.8864 19.9437 29.4323C19.9437 30.704 19.5572 31.851 18.7842 32.8733C18.0112 33.8707 16.8642 34.6562 15.3432 35.2297C13.8471 35.8032 12.0394 36.0899 9.9199 36.0899Z" fill="#999999"/>
<path d="M23.006 8.00085H30.1124V35.7533H23.006V8.00085Z" fill="#999999"/>
<path d="M82.906 15.1447C85.3995 15.1447 87.3818 15.8927 88.8529 17.3888C90.349 18.8849 91.0971 21.1415 91.0971 24.1586V35.7533H83.9906V25.3181C83.9906 23.8968 83.7164 22.8495 83.1678 22.1763C82.6442 21.5031 81.8961 21.1664 80.9237 21.1664C79.8515 21.1664 78.9912 21.5405 78.3429 22.2885C77.6946 23.0366 77.3705 24.1711 77.3705 25.6921V35.7533H70.264V25.3181C70.264 22.5503 69.2417 21.1664 67.197 21.1664C66.0999 21.1664 65.2272 21.5405 64.5789 22.2885C63.9306 23.0366 63.6064 24.1711 63.6064 25.6921V35.7533H56.5V15.4813H63.2698V17.6132C64.0178 16.7904 64.903 16.1795 65.9254 15.7805C66.9726 15.3566 68.1072 15.1447 69.329 15.1447C70.7503 15.1447 72.0219 15.4065 73.144 15.9301C74.2661 16.4538 75.1762 17.2517 75.8744 18.3239C76.6723 17.3015 77.6821 16.5161 78.9039 15.9675C80.1257 15.419 81.4598 15.1447 82.906 15.1447Z" fill="#999999"/>
<circle cx="43.6409" cy="9.33297" r="7.16213" fill="#999999" stroke="white" stroke-width="4.13812"/>
</svg>
