<svg width="110" height="42" viewBox="0 0 110 42" fill="none" xmlns="http://www.w3.org/2000/svg">
<path d="M23.4229 6.68013C24.7546 6.68013 25.9466 6.95935 26.9991 7.51778C28.073 8.05474 28.9106 8.90312 29.512 10.0629C30.1349 11.2228 30.4463 12.7262 30.4463 14.5734V24.6251H23.1652V15.8298C23.1652 14.7344 22.9826 13.9612 22.6175 13.5102C22.2524 13.0377 21.7799 12.8014 21.2 12.8014C20.7704 12.8014 20.3838 12.9088 20.0401 13.1236C19.6965 13.3384 19.4173 13.682 19.2025 14.1545C19.0092 14.6056 18.9125 15.2284 18.9125 16.0231V24.6251H11.6314V15.8298C11.6314 14.7344 11.4596 13.9612 11.116 13.5102C10.7723 13.0377 10.289 12.8014 9.66618 12.8014C9.23662 12.8014 8.85001 12.9088 8.50636 13.1236C8.16271 13.3384 7.88349 13.682 7.66871 14.1545C7.47541 14.6056 7.37876 15.2284 7.37876 16.0231V24.6251H0.0976562V7.0023H7.02437V12.0604L5.60681 10.6429C6.27263 9.31121 7.16397 8.32321 8.28084 7.67887C9.3977 7.01304 10.6434 6.68013 12.018 6.68013C13.5645 6.68013 14.9283 7.08822 16.1096 7.90439C17.3124 8.69908 18.1178 9.96629 18.5259 11.706L16.3029 11.3516C16.9473 9.89112 17.8816 8.75278 19.1058 7.93661C20.3516 7.09896 21.7906 6.68013 23.4229 6.68013Z" fill="#999999"/>
<path d="M38.8563 24.9473C37.4602 24.9473 36.193 24.6681 35.0546 24.1097C33.9378 23.5298 33.0572 22.6384 32.4128 21.4356C31.7685 20.2114 31.4463 18.6435 31.4463 16.7319V7.0023H38.7274V15.4754C38.7274 16.7212 38.9314 17.591 39.3395 18.085C39.7476 18.579 40.306 18.826 41.0148 18.826C41.4444 18.826 41.8417 18.7186 42.2069 18.5039C42.5935 18.2676 42.9049 17.8917 43.1412 17.3763C43.3774 16.8393 43.4956 16.1413 43.4956 15.2821V7.0023H50.7766V24.6251H43.8499V19.5348L45.2353 20.9202C44.6124 22.2948 43.7211 23.315 42.5613 23.9808C41.4229 24.6251 40.1879 24.9473 38.8563 24.9473Z" fill="#999999"/>
<path d="M64.1546 6.68013C65.5077 6.68013 66.732 6.95935 67.8274 7.51778C68.9228 8.05474 69.7819 8.90312 70.4048 10.0629C71.0491 11.2228 71.3713 12.7262 71.3713 14.5734V24.6251H64.0902V15.8298C64.0902 14.7344 63.8969 13.9612 63.5103 13.5102C63.1237 13.0377 62.5975 12.8014 61.9316 12.8014C61.4376 12.8014 60.9758 12.9195 60.5463 13.1558C60.1382 13.3706 59.8053 13.7357 59.5475 14.2512C59.3113 14.7667 59.1932 15.4647 59.1932 16.3453V24.6251H51.9121V7.0023H58.8388V12.1571L57.4534 10.6751C58.1407 9.34343 59.0643 8.34469 60.2241 7.67887C61.4054 7.01304 62.7156 6.68013 64.1546 6.68013Z" fill="#999999"/>
<path d="M82.2257 24.9473C80.2068 24.9473 78.4134 24.5607 76.8454 23.7875C75.2775 23.0143 74.0425 21.9404 73.1405 20.5658C72.2599 19.1697 71.8196 17.5803 71.8196 15.7976C71.8196 14.0149 72.2599 12.4363 73.1405 11.0617C74.0425 9.68708 75.2775 8.61317 76.8454 7.83995C78.4134 7.06674 80.2068 6.68013 82.2257 6.68013C84.3735 6.68013 86.2099 7.14191 87.7349 8.06548C89.2598 8.98904 90.3123 10.267 90.8922 11.8993L85.2541 14.67C84.889 13.8538 84.438 13.2632 83.901 12.8981C83.3855 12.5329 82.8164 12.3504 82.1935 12.3504C81.6566 12.3504 81.1518 12.4792 80.6793 12.737C80.2283 12.9947 79.8631 13.3813 79.5839 13.8968C79.3262 14.3908 79.1973 15.0244 79.1973 15.7976C79.1973 16.5708 79.3262 17.2152 79.5839 17.7306C79.8631 18.2461 80.2283 18.6327 80.6793 18.8905C81.1518 19.1482 81.6566 19.2771 82.1935 19.2771C82.8164 19.2771 83.3855 19.0945 83.901 18.7294C84.438 18.3643 84.889 17.7736 85.2541 16.9574L90.8922 19.7281C90.3123 21.3605 89.2598 22.6384 87.7349 23.562C86.2099 24.4855 84.3735 24.9473 82.2257 24.9473Z" fill="#999999"/>
<path d="M102.723 6.68013C104.077 6.68013 105.301 6.95935 106.396 7.51778C107.492 8.05474 108.351 8.90312 108.974 10.0629C109.618 11.2228 109.94 12.7262 109.94 14.5734V24.6251H102.659V15.8298C102.659 14.7344 102.466 13.9612 102.079 13.5102C101.692 13.0377 101.166 12.8014 100.5 12.8014C100.006 12.8014 99.5447 12.9195 99.1151 13.1558C98.707 13.3706 98.3741 13.7357 98.1164 14.2512C97.8801 14.7667 97.762 15.4647 97.762 16.3453V24.6251H90.4809V0.71994H97.762V12.1571L96.0223 10.6751C96.7096 9.34343 97.6331 8.34469 98.7929 7.67887C99.9742 7.01304 101.284 6.68013 102.723 6.68013Z" fill="#999999"/>
<path d="M30.7493 26.4902C30.7493 26.4902 30.0253 21.7222 25.8188 22.7654C21.9006 23.7371 17.4912 39.8577 17.4912 39.8577H61.0534C62.0605 32.418 54.4394 27.091 54.4394 27.091C54.4394 27.091 48.8482 22.7654 46.1418 22.7654C43.6165 22.7654 42.414 26.4902 42.414 26.4902C42.414 26.4902 40.6101 20.0018 36.1607 20.0018C31.7113 20.0018 30.7493 26.4902 30.7493 26.4902Z" fill="white"/>
<path d="M46.3448 24.4417C46.3448 24.4417 45.4788 18.318 40.4469 19.6578C35.7599 20.9059 30.4854 41.6098 30.4854 41.6098H82.5949C83.7996 32.0548 74.6831 25.2133 74.6831 25.2133C74.6831 25.2133 67.9949 19.6578 64.7575 19.6578C61.7367 19.6578 60.2982 24.4417 60.2982 24.4417C60.2982 24.4417 58.1404 16.1085 52.818 16.1085C47.4956 16.1085 46.3448 24.4417 46.3448 24.4417Z" fill="white"/>
<path d="M72.0188 26.4902C72.0188 26.4902 71.2949 21.7222 67.0884 22.7654C63.1701 23.7371 58.7607 39.8577 58.7607 39.8577H102.323C103.33 32.418 95.7089 27.091 95.7089 27.091C95.7089 27.091 90.1177 22.7654 87.4114 22.7654C84.886 22.7654 83.6835 26.4902 83.6835 26.4902C83.6835 26.4902 81.8797 20.0018 77.4303 20.0018C72.9808 20.0018 72.0188 26.4902 72.0188 26.4902Z" fill="white"/>
</svg>
