<svg width="79" height="46" viewBox="0 0 79 46" fill="none" xmlns="http://www.w3.org/2000/svg">
<path d="M21.3253 40.7087V40.736H21.3525H31.7672H31.7945V40.7087V38.2513V38.2241H31.7672H24.0713V24.3261V24.2988H24.044H21.3525H21.3253V24.3261V40.7087ZM41.6206 30.6435C40.8188 29.7562 39.6141 29.2136 38.2075 29.2136C35.1478 29.2136 32.7739 31.8024 32.7739 35.1152C32.7739 38.4049 35.148 40.9701 38.2075 40.9701C39.6138 40.9701 40.8186 40.4501 41.6206 39.5635V40.7087V40.736H41.6478H44.2223H44.2495V40.7087V29.4749V29.4476H44.2223H41.6478H41.6206V29.4749V30.6435ZM47.0521 40.7087V40.736H47.0793H49.6538H49.681V40.7087V34.0153C49.681 33.2733 49.9475 32.6899 50.3831 32.2918C50.819 31.8934 51.4264 31.6787 52.1112 31.6787C52.7959 31.6787 53.3974 31.8934 53.8274 32.2917C54.2572 32.6897 54.5179 33.2731 54.5179 34.0153V40.7087V40.736H54.5452H57.1196H57.1468V40.7087V34.0153C57.1468 33.2733 57.4133 32.6899 57.8489 32.2918C58.2848 31.8934 58.8922 31.6787 59.577 31.6787C60.2617 31.6787 60.8632 31.8934 61.2932 32.2917C61.723 32.6897 61.9837 33.2731 61.9837 34.0153V40.7087V40.736H62.011H64.5854H64.6127V40.7087V33.4536C64.6127 32.1474 64.1241 31.0869 63.3313 30.353C62.5388 29.6194 61.4436 29.2136 60.2323 29.2136C58.6704 29.2136 57.3385 29.9066 56.4896 31.0642C55.7537 29.8829 54.4211 29.2136 52.8835 29.2136C51.5927 29.2136 50.4582 29.6879 49.681 30.5497V29.4749V29.4476H49.6538H47.0793H47.0521V29.4749V40.7087ZM67.2104 45.3895V45.4168H67.2377H69.8121H69.8394V45.3895V39.5635C70.6414 40.4501 71.8461 40.9701 73.2525 40.9701C76.3119 40.9701 78.686 38.4049 78.686 35.1152C78.686 31.8024 76.3121 29.2136 73.2525 29.2136C71.8458 29.2136 70.6412 29.7562 69.8394 30.6435V29.4749V29.4476H69.8121H67.2377H67.2104V29.4749V45.3895ZM38.6287 38.4815C37.6997 38.4815 36.9114 38.1333 36.3551 37.5365C35.7987 36.9395 35.4731 36.0922 35.4731 35.0918C35.4731 34.0914 35.7987 33.2441 36.3551 32.6472C36.9114 32.0504 37.6997 31.7021 38.6287 31.7021C39.5695 31.7021 40.3578 32.0504 40.9111 32.6471C41.4645 33.244 41.7844 34.0913 41.7844 35.0918C41.7844 36.0924 41.4645 36.9396 40.9111 37.5365C40.3578 38.1332 39.5695 38.4815 38.6287 38.4815ZM72.8312 38.4815C71.8904 38.4815 71.1021 38.1332 70.5488 37.5365C69.9954 36.9396 69.6756 36.0924 69.6756 35.0918C69.6756 34.0913 69.9954 33.244 70.5488 32.6471C71.1021 32.0504 71.8904 31.7021 72.8312 31.7021C73.7602 31.7021 74.5486 32.0504 75.1048 32.6472C75.6612 33.2441 75.9868 34.0914 75.9868 35.0918C75.9868 36.0922 75.6612 36.9395 75.1048 37.5365C74.5486 38.1333 73.7602 38.4815 72.8312 38.4815Z" fill="#999999" stroke="#999999" stroke-width="0.0545527"/>
<path d="M33.2236 27.8618H12.248C12.248 27.8618 15.303 21.9974 16.1758 15.3965H29.7322C30.687 21.9974 33.2236 27.8618 33.2236 27.8618Z" fill="white" stroke="#999999" stroke-width="2.34577"/>
<line x1="1.12896" y1="16.8622" x2="9.77882" y2="18.2709" stroke="#999999" stroke-width="2.34577"/>
<line x1="22.5859" y1="9.88664" x2="22.5859" y2="0.939996" stroke="#999999" stroke-width="2.34577"/>
<line x1="35.9541" y1="18.2212" x2="45.3372" y2="16.6937" stroke="#999999" stroke-width="2.34577"/>
</svg>
