<svg width="95" height="47" viewBox="0 0 95 47" fill="none" xmlns="http://www.w3.org/2000/svg">
<path d="M28.3706 36.5685C28.3706 38.2773 27.9743 39.8251 27.1819 41.2119C26.3894 42.5739 25.2502 43.6635 23.7644 44.4808C22.2785 45.2732 20.5326 45.6695 18.5267 45.6695C16.4713 45.6695 14.713 45.2732 13.2519 44.4808C11.7908 43.6635 10.664 42.5739 9.87154 41.2119C9.07908 39.8251 8.68285 38.2773 8.68285 36.5685C8.68285 34.736 9.10385 33.1015 9.94584 31.6652C10.7631 30.2041 11.9146 29.0649 13.4005 28.2477C14.8616 27.4057 16.5703 26.9847 18.5267 26.9847C20.4583 26.9847 22.1671 27.4057 23.6529 28.2477C25.1388 29.0649 26.3027 30.2041 27.1447 31.6652C27.962 33.1015 28.3706 34.736 28.3706 36.5685ZM28.222 46.301H0.65918V44.4436H15.1092L18.4896 44.8151L21.8699 44.5179H28.222V46.301ZM26.699 36.68C26.699 35.1941 26.3646 33.8568 25.696 32.6681C25.0026 31.4795 24.0368 30.5508 22.7986 29.8821C21.5604 29.1887 20.1364 28.842 18.5267 28.842C16.8923 28.842 15.4683 29.1887 14.2548 29.8821C13.0166 30.5508 12.0632 31.4795 11.3946 32.6681C10.7012 33.8568 10.3544 35.1941 10.3544 36.68C10.3544 38.1658 10.7012 39.5031 11.3946 40.6918C12.0632 41.8557 13.0166 42.7844 14.2548 43.4778C15.4683 44.1465 16.8923 44.4808 18.5267 44.4808C20.1364 44.4808 21.5604 44.1465 22.7986 43.4778C24.0368 42.7844 25.0026 41.8557 25.696 40.6918C26.3646 39.5031 26.699 38.1658 26.699 36.68Z" fill="#999999"/>
<path d="M38.0397 21.4702C36.3454 22.4484 34.6337 22.9505 32.9044 22.9767C31.1966 22.9904 29.596 22.5706 28.1024 21.7172C26.6303 20.8514 25.4175 19.5928 24.4641 17.9414C23.4983 16.2685 22.9932 14.6013 22.949 12.9398C22.9138 11.2443 23.2969 9.67916 24.0984 8.24418C24.8998 6.80921 26.0619 5.65216 27.5846 4.77302C29.1073 3.89389 30.6735 3.46148 32.2831 3.47582C33.9142 3.47777 35.4443 3.92403 36.8736 4.8146C38.3119 5.67133 39.5139 6.93612 40.4797 8.60896C40.5169 8.6733 40.5495 8.75455 40.5776 8.85272C40.6147 8.91706 40.658 8.99212 40.7076 9.07791L25.8772 17.6402L25.1529 16.3856L39.1146 8.32476L38.8241 9.30746C38.0903 7.98683 37.1366 6.97896 35.9632 6.28384C34.7989 5.55489 33.567 5.17949 32.2676 5.15763C30.9558 5.11433 29.6672 5.45795 28.4018 6.1885C27.1579 6.90667 26.2161 7.85079 25.5762 9.02088C24.9454 10.1571 24.6546 11.4117 24.7037 12.7845C24.7405 14.1359 25.1427 15.4764 25.9104 16.8061L26.0775 17.0956C26.87 18.4682 27.876 19.5173 29.0957 20.2429C30.3243 20.9347 31.6482 21.2713 33.0672 21.2527C34.4739 21.2127 35.8635 20.7964 37.2361 20.004C38.3084 19.3849 39.1942 18.6161 39.8936 17.6976C40.6143 16.7667 41.0673 15.7188 41.2526 14.5538L42.7985 15.0768C42.5893 16.3986 42.0633 17.6173 41.2205 18.733C40.3868 19.8149 39.3265 20.7273 38.0397 21.4702Z" fill="#999999"/>
<path d="M66.2831 4.60752C67.6557 5.39998 68.6912 6.35527 69.3896 7.4734C70.1219 8.58247 70.4573 9.83413 70.3958 11.2284C70.3681 12.6136 69.9023 14.089 68.9984 15.6546L63.3335 25.4664L61.725 24.5378L67.3156 14.8546C68.4053 12.9673 68.7523 11.2518 68.3568 9.70806C67.9827 8.17669 66.9378 6.91572 65.2221 5.92515C63.9138 5.16983 62.6224 4.78166 61.3478 4.76063C60.0731 4.73959 58.8998 5.06304 57.8279 5.73096C56.7774 6.41127 55.8621 7.42699 55.0821 8.77813L49.9187 17.7214L48.3102 16.7927L58.0055 0L59.5496 0.891519L56.8565 5.55616L56.9285 4.91143C58.2109 3.87891 59.6586 3.32785 61.2715 3.25824C62.8968 3.16718 64.5674 3.61694 66.2831 4.60752Z" fill="#999999"/>
<path d="M66.4207 36.5601C66.4207 34.7523 66.8294 33.1179 67.6466 31.6568C68.4886 30.2204 69.6525 29.0813 71.1384 28.2393C72.6242 27.3973 74.333 26.9763 76.2646 26.9763C78.221 26.9763 79.9297 27.3973 81.3908 28.2393C82.8767 29.0813 84.0283 30.2204 84.8455 31.6568C85.6875 33.1179 86.1085 34.7523 86.1085 36.5601C86.1085 38.2689 85.7122 39.8043 84.9198 41.1663C84.1273 42.5531 83.0005 43.6427 81.5394 44.4352C80.0783 45.2524 78.3201 45.6611 76.2646 45.6611C74.2587 45.6611 72.5128 45.2648 71.0269 44.4724C69.5411 43.6799 68.4019 42.5903 67.6094 41.2035C66.817 39.8414 66.4207 38.2936 66.4207 36.5601ZM68.0923 36.6716C68.0923 38.1574 68.4267 39.4823 69.0953 40.6463C69.7887 41.8349 70.7545 42.7636 71.9927 43.4323C73.231 44.1257 74.6549 44.4724 76.2646 44.4724C77.8991 44.4724 79.323 44.1257 80.5365 43.4323C81.7747 42.7636 82.7281 41.8349 83.3968 40.6463C84.0902 39.4823 84.4369 38.1574 84.4369 36.6716C84.4369 35.1857 84.0902 33.8484 83.3968 32.6597C82.7281 31.4958 81.7747 30.5671 80.5365 29.8737C79.323 29.2051 77.8991 28.8708 76.2646 28.8708C74.6549 28.8708 73.231 29.2051 71.9927 29.8737C70.7545 30.5671 69.7887 31.4958 69.0953 32.6597C68.4267 33.8484 68.0923 35.1857 68.0923 36.6716ZM66.5693 44.5095H72.9214L76.3018 44.8438L79.6821 44.4724H94.1321V46.3297H66.5693V44.5095Z" fill="#999999"/>
</svg>
