<svg width="135" height="36" viewBox="0 0 135 36" fill="none" xmlns="http://www.w3.org/2000/svg">
<path d="M50.3104 7.34753H42.8647C42.3552 7.34753 41.9219 7.7177 41.8424 8.22068L38.8311 27.3134C38.7712 27.6901 39.063 28.0298 39.4451 28.0298H42.9997C43.5092 28.0298 43.9426 27.6596 44.022 27.1555L44.8342 22.0059C44.9126 21.5018 45.347 21.1317 45.8554 21.1317H48.2125C53.1171 21.1317 55.9478 18.7583 56.687 14.0551C57.0201 11.9974 56.7011 10.3807 55.7376 9.24842C54.6794 8.00511 52.8025 7.34753 50.3104 7.34753ZM51.1694 14.3207C50.7622 16.9924 48.7209 16.9924 46.7471 16.9924H45.6235L46.4117 12.0029C46.4586 11.7013 46.7199 11.4792 47.0247 11.4792H47.5396C48.8842 11.4792 50.1526 11.4792 50.808 12.2456C51.1988 12.7029 51.3186 13.3823 51.1694 14.3207Z" fill="#253B80"/>
<path d="M72.5672 14.2345H69.0017C68.6979 14.2345 68.4356 14.4566 68.3887 14.7582L68.2309 15.7554L67.9816 15.394C67.2097 14.2737 65.4884 13.8992 63.7704 13.8992C59.8304 13.8992 56.4652 16.8833 55.8098 21.0694C55.469 23.1576 55.9535 25.1543 57.138 26.5467C58.2245 27.827 59.7792 28.3605 61.6289 28.3605C64.8036 28.3605 66.5641 26.3192 66.5641 26.3192L66.4051 27.3099C66.3452 27.6888 66.637 28.0284 67.017 28.0284H70.2287C70.7393 28.0284 71.1704 27.6583 71.251 27.1542L73.178 14.9509C73.2389 14.5753 72.9483 14.2345 72.5672 14.2345ZM67.5972 21.1739C67.2532 23.2109 65.6365 24.5783 63.5745 24.5783C62.5391 24.5783 61.7117 24.2463 61.1804 23.617C60.6535 22.9921 60.4531 22.1026 60.6208 21.1119C60.942 19.0923 62.5859 17.6803 64.6164 17.6803C65.6289 17.6803 66.4519 18.0167 66.9941 18.6514C67.5374 19.2926 67.7529 20.1876 67.5972 21.1739Z" fill="#253B80"/>
<path d="M91.5565 14.2344H87.9736C87.6317 14.2344 87.3106 14.4042 87.1168 14.6884L82.1751 21.9675L80.0805 14.9725C79.9487 14.5349 79.5448 14.2344 79.0876 14.2344H75.5667C75.1388 14.2344 74.8416 14.6524 74.9777 15.0553L78.9242 26.637L75.2139 31.8747C74.9222 32.2874 75.2161 32.8546 75.7202 32.8546H79.2988C79.6384 32.8546 79.9563 32.6891 80.149 32.4104L92.0661 15.2088C92.3513 14.7972 92.0584 14.2344 91.5565 14.2344Z" fill="#253B80"/>
<path d="M103.419 7.34753H95.972C95.4636 7.34753 95.0303 7.7177 94.9508 8.22068L91.9395 27.3134C91.8796 27.6901 92.1714 28.0298 92.5513 28.0298H96.3727C96.7276 28.0298 97.0314 27.7706 97.0869 27.4179L97.9415 22.0059C98.0199 21.5018 98.4543 21.1317 98.9627 21.1317H101.319C106.224 21.1317 109.054 18.7583 109.794 14.0551C110.129 11.9974 109.807 10.3807 108.844 9.24842C107.787 8.00511 105.911 7.34753 103.419 7.34753ZM104.278 14.3207C103.872 16.9924 101.83 16.9924 99.8555 16.9924H98.733L99.5223 12.0029C99.5691 11.7013 99.8282 11.4792 100.134 11.4792H100.649C101.993 11.4792 103.262 11.4792 103.917 12.2456C104.308 12.7029 104.427 13.3823 104.278 14.3207Z" fill="#179BD7"/>
<path d="M125.674 14.2345H122.111C121.805 14.2345 121.544 14.4566 121.499 14.7582L121.341 15.7554L121.09 15.394C120.319 14.2737 118.598 13.8992 116.88 13.8992C112.94 13.8992 109.576 16.8833 108.921 21.0694C108.581 23.1576 109.063 25.1543 110.248 26.5467C111.337 27.827 112.889 28.3605 114.739 28.3605C117.914 28.3605 119.674 26.3192 119.674 26.3192L119.515 27.3099C119.455 27.6888 119.747 28.0284 120.129 28.0284H123.34C123.848 28.0284 124.281 27.6583 124.361 27.1542L126.289 14.9509C126.348 14.5753 126.056 14.2345 125.674 14.2345ZM120.704 21.1739C120.362 23.2109 118.743 24.5783 116.681 24.5783C115.648 24.5783 114.818 24.2463 114.287 23.617C113.76 22.9921 113.562 22.1026 113.727 21.1119C114.051 19.0923 115.693 17.6803 117.723 17.6803C118.736 17.6803 119.559 18.0167 120.101 18.6514C120.646 19.2926 120.862 20.1876 120.704 21.1739Z" fill="#179BD7"/>
<path d="M129.877 7.87119L126.821 27.3134C126.761 27.6901 127.053 28.0297 127.433 28.0297H130.505C131.016 28.0297 131.449 27.6596 131.528 27.1555L134.541 8.0639C134.601 7.6872 134.309 7.34644 133.929 7.34644H130.489C130.185 7.34752 129.924 7.56962 129.877 7.87119Z" fill="#179BD7"/>
<path d="M7.91072 31.74L8.48011 28.1233L7.21177 28.0939H1.15527L5.36423 1.4064C5.37729 1.32583 5.41975 1.25071 5.48181 1.19737C5.54386 1.14402 5.62334 1.11462 5.70608 1.11462H15.9182C19.3084 1.11462 21.6481 1.82011 22.8696 3.21257C23.4422 3.86579 23.807 4.54841 23.9833 5.29962C24.1684 6.08785 24.1717 7.02958 23.991 8.17817L23.9779 8.262V8.99797L24.5506 9.32241C25.0329 9.57825 25.4161 9.87112 25.71 10.2064C26.2 10.7649 26.5168 11.4748 26.6507 12.3164C26.7889 13.1819 26.7432 14.2118 26.5168 15.3778C26.2555 16.7191 25.8331 17.8873 25.2626 18.8432C24.7378 19.7239 24.0693 20.4545 23.2757 21.0206C22.5179 21.5584 21.6176 21.9667 20.5996 22.228C19.6133 22.4849 18.4886 22.6145 17.2551 22.6145H16.4604C15.892 22.6145 15.3401 22.8191 14.9068 23.186C14.4724 23.5606 14.185 24.0722 14.0968 24.6318L14.0369 24.9574L13.0309 31.3318L12.9852 31.5658C12.9732 31.6399 12.9525 31.6769 12.922 31.7019C12.8948 31.7248 12.8556 31.74 12.8175 31.74H7.91072Z" fill="#253B80"/>
<path d="M25.0926 8.3468C25.0621 8.54168 25.0273 8.74091 24.9881 8.94559C23.6413 15.86 19.0339 18.2486 13.1494 18.2486H10.1533C9.43368 18.2486 8.82726 18.7712 8.71513 19.481L7.18114 29.2097L6.74674 31.9674C6.6738 32.4334 7.03307 32.8537 7.50339 32.8537H12.8174C13.4467 32.8537 13.9812 32.3964 14.0803 31.7758L14.1325 31.5058L15.1331 25.1565L15.1973 24.8081C15.2953 24.1853 15.8309 23.7281 16.4602 23.7281H17.255C22.4035 23.7281 26.4339 21.6378 27.6119 15.5889C28.104 13.062 27.8492 10.9521 26.5471 9.46817C26.153 9.02071 25.6642 8.64946 25.0926 8.3468Z" fill="#179BD7"/>
<path d="M23.6835 7.78515C23.4777 7.72527 23.2654 7.67083 23.0477 7.62184C22.8289 7.57394 22.6046 7.53148 22.3738 7.49446C21.566 7.36381 20.6809 7.30176 19.7326 7.30176H11.7284C11.5313 7.30176 11.3441 7.3464 11.1764 7.42696C10.8073 7.60442 10.533 7.9539 10.4666 8.38176L8.76384 19.1665L8.71484 19.4812C8.82698 18.7713 9.43339 18.2487 10.153 18.2487H13.1492C19.0336 18.2487 23.6411 15.859 24.9878 8.94571C25.0281 8.74103 25.0618 8.5418 25.0923 8.34692C24.7515 8.16619 24.3825 8.0116 23.9851 7.87986C23.8871 7.8472 23.7859 7.81563 23.6835 7.78515Z" fill="#222D65"/>
<path d="M10.4668 8.38198C10.5333 7.95411 10.8076 7.60464 11.1767 7.42827C11.3454 7.3477 11.5316 7.30306 11.7287 7.30306H19.7329C20.6811 7.30306 21.5662 7.36512 22.3741 7.49577C22.6049 7.53278 22.8291 7.57524 23.048 7.62315C23.2657 7.67214 23.478 7.72657 23.6838 7.78645C23.7861 7.81694 23.8874 7.84851 23.9864 7.88008C24.3838 8.01181 24.7529 8.1675 25.0937 8.34714C25.4943 5.79194 25.0904 4.05218 23.7088 2.47681C22.1857 0.7425 19.4367 0 15.9191 0H5.707C4.98846 0 4.37551 0.522581 4.26446 1.23351L0.0108749 28.1954C-0.0729557 28.7289 0.338577 29.2101 0.876399 29.2101H7.18112L8.7641 19.1667L10.4668 8.38198Z" fill="#253B80"/>
</svg>
