<svg width="533" height="474" viewBox="0 0 533 474" fill="none" xmlns="http://www.w3.org/2000/svg">
<rect width="739" height="473.177" rx="20.0593" fill="white"/>
<circle cx="23.4337" cy="31.0237" r="7.43367" fill="#EE6A5F"/>
<circle cx="47.0001" cy="31.0237" r="7.43367" fill="#F4BE50"/>
<circle cx="70.5665" cy="31.0237" r="7.43367" fill="#5FC454"/>
<rect x="290.629" y="16" width="231.685" height="30.0474" rx="15.0237" fill="#F5F5F5"/>
<path d="M356.973 35.0237V34.2233C356.858 34.3948 356.71 34.5435 356.538 34.6807C356.23 34.9094 355.795 35.1381 355.2 35.1381C354.103 35.1381 353.371 34.3948 353.371 33.5372C353.371 32.6224 354 31.9935 354.972 31.822L356.973 31.479C356.973 30.8958 356.515 30.4499 355.829 30.4499C355.383 30.4499 355.052 30.6443 354.789 30.8272C354.64 30.9301 354.514 31.0559 354.4 31.1931L353.657 30.4499C353.805 30.2555 353.988 30.084 354.206 29.9353C354.572 29.6723 355.098 29.4208 355.829 29.4208C357.202 29.4208 358.116 30.3355 358.116 31.5362V35.0237H356.973ZM356.973 32.5653V32.3938L355.372 32.6796C354.789 32.7825 354.514 33.0684 354.514 33.4229C354.514 33.8231 354.846 34.1661 355.429 34.1661C356.287 34.1661 356.973 33.48 356.973 32.5653ZM359.712 37.425V29.5351H360.855V30.3355C360.97 30.164 361.118 30.0154 361.301 29.8781C361.61 29.6494 362.067 29.4208 362.742 29.4208C364.114 29.4208 365.315 30.6214 365.315 32.2794C365.315 33.9374 364.114 35.1381 362.742 35.1381C362.067 35.1381 361.61 34.9094 361.301 34.6807C361.118 34.5435 360.97 34.3948 360.855 34.2233V37.425H359.712ZM362.513 34.0518C363.428 34.0518 364.171 33.32 364.171 32.2794C364.171 31.2389 363.428 30.507 362.513 30.507C361.598 30.507 360.855 31.2389 360.855 32.2794C360.855 33.32 361.598 34.0518 362.513 34.0518ZM366.568 37.425V29.5351H367.712V30.3355C367.826 30.164 367.975 30.0154 368.157 29.8781C368.466 29.6494 368.924 29.4208 369.598 29.4208C370.97 29.4208 372.171 30.6214 372.171 32.2794C372.171 33.9374 370.97 35.1381 369.598 35.1381C368.924 35.1381 368.466 34.9094 368.157 34.6807C367.975 34.5435 367.826 34.3948 367.712 34.2233V37.425H366.568ZM369.37 34.0518C370.284 34.0518 371.028 33.32 371.028 32.2794C371.028 31.2389 370.284 30.507 369.37 30.507C368.455 30.507 367.712 31.2389 367.712 32.2794C367.712 33.32 368.455 34.0518 369.37 34.0518ZM373.882 35.1381C373.482 35.1381 373.138 34.795 373.138 34.3948C373.138 33.9946 373.482 33.6516 373.882 33.6516C374.282 33.6516 374.625 33.9946 374.625 34.3948C374.625 34.795 374.282 35.1381 373.882 35.1381ZM375.994 35.0237V29.5351H377.137V35.0237H375.994ZM375.88 27.8199C375.88 27.4197 376.211 27.1338 376.566 27.1338C376.92 27.1338 377.252 27.4197 377.252 27.8199C377.252 28.2201 376.92 28.506 376.566 28.506C376.211 28.506 375.88 28.2201 375.88 27.8199ZM378.795 35.0237V29.5351H379.939V30.3355C380.053 30.164 380.19 30.0154 380.362 29.8781C380.648 29.6494 381.071 29.4208 381.654 29.4208C382.912 29.4208 383.827 30.3241 383.827 31.822V35.0237H382.683V31.822C382.683 31.0102 382.169 30.507 381.425 30.507C380.568 30.507 379.939 31.1359 379.939 32.0507V35.0237H378.795ZM386.803 35.0237L384.631 29.5351H385.889L387.432 33.5944L388.976 29.5351H390.234L388.061 35.0237H386.803ZM390.803 32.2794C390.803 30.6786 392.061 29.4208 393.661 29.4208C395.262 29.4208 396.52 30.6786 396.52 32.2794C396.52 33.8803 395.262 35.1381 393.661 35.1381C392.061 35.1381 390.803 33.8803 390.803 32.2794ZM393.661 34.0518C394.633 34.0518 395.377 33.32 395.377 32.2794C395.377 31.2389 394.633 30.507 393.661 30.507C392.689 30.507 391.946 31.2389 391.946 32.2794C391.946 33.32 392.689 34.0518 393.661 34.0518ZM397.836 35.0237V29.5351H398.979V35.0237H397.836ZM397.722 27.8199C397.722 27.4197 398.053 27.1338 398.408 27.1338C398.762 27.1338 399.094 27.4197 399.094 27.8199C399.094 28.2201 398.762 28.506 398.408 28.506C398.053 28.506 397.722 28.2201 397.722 27.8199ZM404.697 33.2513L405.497 33.9946C405.326 34.2119 405.131 34.3948 404.902 34.5663C404.502 34.8522 403.931 35.1381 403.153 35.1381C401.552 35.1381 400.294 33.8803 400.294 32.2794C400.294 30.6786 401.552 29.4208 403.153 29.4208C403.931 29.4208 404.502 29.6952 404.88 29.9696C405.097 30.1297 405.291 30.3127 405.44 30.507L404.639 31.2503C404.537 31.1131 404.411 30.9873 404.262 30.8844C403.999 30.7014 403.645 30.507 403.153 30.507C402.181 30.507 401.438 31.2389 401.438 32.2794C401.438 33.32 402.181 34.0518 403.153 34.0518C403.645 34.0518 404.022 33.8688 404.285 33.6516C404.434 33.5372 404.571 33.4 404.697 33.2513ZM410.64 33.3085L411.326 34.1089C411.177 34.3033 410.983 34.4749 410.754 34.6235C410.354 34.8865 409.794 35.1381 408.982 35.1381C407.381 35.1381 406.123 33.8803 406.123 32.2794C406.123 30.6786 407.381 29.4208 408.925 29.4208C410.48 29.4208 411.612 30.5528 411.612 32.1079C411.612 32.2794 411.589 32.4166 411.578 32.5195L411.555 32.6796H407.324C407.45 33.4229 408.113 34.0518 409.039 34.0518C409.531 34.0518 409.931 33.8688 410.205 33.6859C410.366 33.583 410.514 33.4572 410.64 33.3085ZM407.324 31.7077H410.411C410.24 30.9644 409.737 30.4499 408.925 30.4499C408.056 30.4499 407.553 30.9644 407.324 31.7077ZM414.123 35.0237L412.179 29.5351H413.437L414.694 33.2513L415.895 29.5351H416.924L418.125 33.2513L419.383 29.5351H420.64L418.696 35.0237H417.61L416.41 31.3646L415.209 35.0237H414.123ZM421.61 35.0237V29.5351H422.753V35.0237H421.61ZM421.495 27.8199C421.495 27.4197 421.827 27.1338 422.181 27.1338C422.536 27.1338 422.867 27.4197 422.867 27.8199C422.867 28.2201 422.536 28.506 422.181 28.506C421.827 28.506 421.495 28.2201 421.495 27.8199ZM423.896 34.1089L424.64 33.3657C424.754 33.5143 424.88 33.6401 425.029 33.743C425.292 33.926 425.623 34.1089 426.069 34.1089C426.709 34.1089 427.041 33.7773 427.041 33.4229C427.041 32.5081 424.125 32.9769 424.125 31.0216C424.125 30.164 424.88 29.4208 426.126 29.4208C426.778 29.4208 427.27 29.6151 427.59 29.7981C427.784 29.901 427.944 30.0268 428.07 30.164L427.327 30.9073C427.235 30.8272 427.132 30.7472 427.007 30.6786C426.789 30.5528 426.492 30.4499 426.126 30.4499C425.543 30.4499 425.269 30.7357 425.269 31.0216C425.269 31.9364 428.184 31.479 428.184 33.4229C428.184 34.3376 427.395 35.1381 426.069 35.1381C425.337 35.1381 424.811 34.8865 424.445 34.6235C424.228 34.4749 424.045 34.3033 423.896 34.1089ZM433.554 33.3085L434.24 34.1089C434.091 34.3033 433.897 34.4749 433.668 34.6235C433.268 34.8865 432.708 35.1381 431.896 35.1381C430.295 35.1381 429.037 33.8803 429.037 32.2794C429.037 30.6786 430.295 29.4208 431.839 29.4208C433.394 29.4208 434.526 30.5528 434.526 32.1079C434.526 32.2794 434.503 32.4166 434.491 32.5195L434.469 32.6796H430.238C430.364 33.4229 431.027 34.0518 431.953 34.0518C432.445 34.0518 432.845 33.8688 433.119 33.6859C433.279 33.583 433.428 33.4572 433.554 33.3085ZM430.238 31.7077H433.325C433.154 30.9644 432.65 30.4499 431.839 30.4499C430.97 30.4499 430.466 30.9644 430.238 31.7077ZM436.236 35.1381C435.836 35.1381 435.493 34.795 435.493 34.3948C435.493 33.9946 435.836 33.6516 436.236 33.6516C436.636 33.6516 436.979 33.9946 436.979 34.3948C436.979 34.795 436.636 35.1381 436.236 35.1381ZM442.35 33.2513L443.151 33.9946C442.979 34.2119 442.785 34.3948 442.556 34.5663C442.156 34.8522 441.584 35.1381 440.807 35.1381C439.206 35.1381 437.948 33.8803 437.948 32.2794C437.948 30.6786 439.206 29.4208 440.807 29.4208C441.584 29.4208 442.156 29.6952 442.533 29.9696C442.751 30.1297 442.945 30.3127 443.094 30.507L442.293 31.2503C442.19 31.1131 442.065 30.9873 441.916 30.8844C441.653 30.7014 441.298 30.507 440.807 30.507C439.835 30.507 439.092 31.2389 439.092 32.2794C439.092 33.32 439.835 34.0518 440.807 34.0518C441.298 34.0518 441.676 33.8688 441.939 33.6516C442.087 33.5372 442.225 33.4 442.35 33.2513ZM443.777 32.2794C443.777 30.6786 445.035 29.4208 446.636 29.4208C448.237 29.4208 449.494 30.6786 449.494 32.2794C449.494 33.8803 448.237 35.1381 446.636 35.1381C445.035 35.1381 443.777 33.8803 443.777 32.2794ZM446.636 34.0518C447.608 34.0518 448.351 33.32 448.351 32.2794C448.351 31.2389 447.608 30.507 446.636 30.507C445.664 30.507 444.921 31.2389 444.921 32.2794C444.921 33.32 445.664 34.0518 446.636 34.0518ZM450.753 35.0237V29.5351H451.897V30.3355C451.988 30.164 452.114 30.0154 452.262 29.8781C452.525 29.6494 452.914 29.4208 453.497 29.4208C454.092 29.4208 454.526 29.6494 454.801 29.8781C454.961 30.0154 455.098 30.164 455.213 30.3355C455.315 30.164 455.464 30.0154 455.636 29.8781C455.944 29.6494 456.413 29.4208 457.099 29.4208C458.186 29.4208 459.1 30.3355 459.1 31.7649V35.0237H457.957V31.7649C457.957 30.953 457.454 30.507 456.813 30.507C456.07 30.507 455.498 31.0788 455.498 31.9935V35.0237H454.355V31.7649C454.355 30.953 453.852 30.507 453.211 30.507C452.468 30.507 451.897 31.0788 451.897 31.9935V35.0237H450.753Z" fill="#636D7E"/>
<rect x="16" y="75.0474" width="183.87" height="382.129" rx="9.02668" fill="#FAFAFA"/>
<path d="M37.874 114.118V102.885H40.2811V114.118H37.874ZM42.7697 114.118V106.255H44.9361V107.379H45.0163C45.1928 107.138 45.3854 106.929 45.6101 106.737C45.9952 106.416 46.5729 106.095 47.3432 106.095C48.9479 106.095 50.2317 107.379 50.2317 109.384V114.118H48.0653V109.705C48.0653 108.743 47.5197 108.181 46.6211 108.181C45.6582 108.181 44.9361 108.903 44.9361 109.946V114.118H42.7697ZM54.0022 114.118L51.0335 106.255H53.3603L55.1737 111.551H55.2379L57.0513 106.255H59.3781L56.4094 114.118H54.0022ZM64.0281 112.273C65.1514 112.273 66.034 111.39 66.034 110.187C66.034 108.983 65.1514 108.101 64.0281 108.101C62.9048 108.101 62.0222 108.983 62.0222 110.187C62.0222 111.39 62.9048 112.273 64.0281 112.273ZM59.8558 110.187C59.8558 107.94 61.7012 106.095 64.0281 106.095C66.355 106.095 68.2004 107.94 68.2004 110.187C68.2004 112.433 66.355 114.279 64.0281 114.279C61.7012 114.279 59.8558 112.433 59.8558 110.187ZM69.8027 114.118V106.255H71.9691V114.118H69.8027ZM69.6422 104.009C69.6422 103.367 70.2039 102.805 70.8939 102.805C71.5839 102.805 72.1296 103.367 72.1296 104.009C72.1296 104.65 71.5679 105.212 70.8779 105.212C70.1878 105.212 69.6422 104.65 69.6422 104.009ZM79.6662 111.31L81.0302 112.674C80.8216 112.979 80.5488 113.236 80.2279 113.477C79.6662 113.878 78.8799 114.279 77.7405 114.279C75.4136 114.279 73.5682 112.433 73.5682 110.187C73.5682 107.94 75.4136 106.095 77.7405 106.095C78.8799 106.095 79.6662 106.496 80.2279 106.897C80.5488 107.138 80.8216 107.395 81.0302 107.7L79.6662 109.064C79.5218 108.887 79.3453 108.727 79.1527 108.582C78.8157 108.341 78.3343 108.101 77.7405 108.101C76.6172 108.101 75.7346 108.983 75.7346 110.187C75.7346 111.39 76.6172 112.273 77.7405 112.273C78.3343 112.273 78.8157 112.032 79.1527 111.792C79.3453 111.647 79.5218 111.487 79.6662 111.31ZM88.1676 111.471L89.2909 112.995C89.0502 113.236 88.7613 113.444 88.4243 113.637C87.8466 113.958 87.0122 114.279 85.9209 114.279C83.5941 114.279 81.7486 112.433 81.7486 110.187C81.7486 107.94 83.5941 106.095 85.8407 106.095C88.0071 106.095 89.7723 107.86 89.7723 110.026C89.7723 110.331 89.7402 110.54 89.7242 110.716L89.6921 110.989H83.9952C84.236 111.711 84.8779 112.353 86.0814 112.353C86.7714 112.353 87.2689 112.161 87.638 111.92C87.8466 111.792 88.0231 111.647 88.1676 111.471ZM83.9952 109.384H87.5257C87.285 108.662 86.6591 108.02 85.7605 108.02C84.8618 108.02 84.236 108.662 83.9952 109.384Z" fill="#0F0F0F"/>
<path d="M94.2706 114.118L90.5797 102.885H93.0671L95.3939 110.428H95.4742L97.801 102.885H100.048L102.375 110.428H102.455L104.782 102.885H107.269L103.578 114.118H101.251L98.9725 106.817H98.8762L96.5975 114.118H94.2706ZM108.244 114.118V106.255H110.411V114.118H108.244ZM108.084 104.009C108.084 103.367 108.646 102.805 109.336 102.805C110.026 102.805 110.571 103.367 110.571 104.009C110.571 104.65 110.01 105.212 109.32 105.212C108.63 105.212 108.084 104.65 108.084 104.009ZM111.689 112.835L112.973 111.471C113.133 111.647 113.326 111.792 113.534 111.92C113.903 112.161 114.417 112.353 115.059 112.353C115.781 112.353 116.022 112.113 116.022 111.792C116.022 110.909 112.01 111.069 112.01 108.502C112.01 107.218 113.133 106.095 115.139 106.095C116.15 106.095 116.904 106.4 117.418 106.705C117.723 106.881 117.98 107.09 118.188 107.298L116.904 108.662C116.776 108.55 116.616 108.438 116.439 108.341C116.134 108.165 115.701 108.02 115.139 108.02C114.577 108.02 114.337 108.261 114.337 108.502C114.337 109.384 118.349 109.224 118.349 111.792C118.349 113.14 117.225 114.279 115.059 114.279C113.968 114.279 113.133 113.926 112.556 113.557C112.219 113.348 111.93 113.107 111.689 112.835ZM125.732 111.471L126.855 112.995C126.614 113.236 126.325 113.444 125.988 113.637C125.411 113.958 124.576 114.279 123.485 114.279C121.158 114.279 119.313 112.433 119.313 110.187C119.313 107.94 121.158 106.095 123.405 106.095C125.571 106.095 127.336 107.86 127.336 110.026C127.336 110.331 127.304 110.54 127.288 110.716L127.256 110.989H121.559C121.8 111.711 122.442 112.353 123.646 112.353C124.336 112.353 124.833 112.161 125.202 111.92C125.411 111.792 125.587 111.647 125.732 111.471ZM121.559 109.384H125.09C124.849 108.662 124.223 108.02 123.325 108.02C122.426 108.02 121.8 108.662 121.559 109.384Z" fill="#039635"/>
<path d="M45.4156 151.391L46.3289 152.304C46.0549 152.643 45.7418 152.943 45.3634 153.217C44.7241 153.674 43.7977 154.131 42.5452 154.131C39.8052 154.131 37.7176 152.043 37.7176 149.433C37.7176 146.824 39.8052 144.736 42.5452 144.736C43.7977 144.736 44.711 145.167 45.3373 145.624C45.6896 145.885 46.0027 146.172 46.2637 146.498L45.3503 147.411C45.1677 147.163 44.9328 146.928 44.6588 146.733C44.1891 146.38 43.4846 146.041 42.5452 146.041C40.6533 146.041 39.1528 147.542 39.1528 149.433C39.1528 151.325 40.6533 152.826 42.5452 152.826C43.4846 152.826 44.2022 152.474 44.6849 152.108C44.972 151.899 45.2199 151.665 45.4156 151.391ZM47.7004 154V144.867H49.0052V154H47.7004ZM50.9623 154V147.737H52.267V154H50.9623ZM50.8318 145.78C50.8318 145.324 51.2102 144.997 51.6146 144.997C52.0191 144.997 52.3975 145.324 52.3975 145.78C52.3975 146.237 52.0191 146.563 51.6146 146.563C51.2102 146.563 50.8318 146.237 50.8318 145.78ZM58.9212 152.043L59.704 152.956C59.5344 153.178 59.3126 153.374 59.0517 153.543C58.595 153.843 57.9557 154.131 57.0293 154.131C55.2027 154.131 53.7675 152.695 53.7675 150.869C53.7675 149.042 55.2027 147.607 56.9641 147.607C58.7385 147.607 60.0302 148.899 60.0302 150.673C60.0302 150.869 60.0041 151.025 59.9911 151.143L59.965 151.325H55.1374C55.281 152.173 56.0377 152.891 57.0946 152.891C57.6556 152.891 58.1123 152.682 58.4254 152.474C58.6081 152.356 58.7777 152.213 58.9212 152.043ZM55.1374 150.216H58.6602C58.4645 149.368 57.8904 148.781 56.9641 148.781C55.9725 148.781 55.3984 149.368 55.1374 150.216ZM61.4598 154V147.737H62.7646V148.651C62.8951 148.455 63.0516 148.285 63.2473 148.129C63.5735 147.868 64.0563 147.607 64.7217 147.607C66.1569 147.607 67.2007 148.638 67.2007 150.347V154H65.896V150.347C65.896 149.42 65.3088 148.846 64.4607 148.846C63.4822 148.846 62.7646 149.564 62.7646 150.608V154H61.4598ZM69.5533 152.043V148.977H68.379V147.737H69.0967C69.5011 147.737 69.6838 147.542 69.6838 147.02V145.65H70.8581V147.737H72.2933V148.977H70.8581V151.912C70.8581 152.565 71.1581 152.891 71.7714 152.891C71.9671 152.891 72.1367 152.852 72.2802 152.8L72.489 152.695V153.935L72.215 154.039C72.0454 154.091 71.8105 154.131 71.5104 154.131C70.2579 154.131 69.5533 153.413 69.5533 152.043ZM73.4614 152.956L74.3095 152.108C74.44 152.278 74.5835 152.421 74.7531 152.539C75.0532 152.748 75.4316 152.956 75.9404 152.956C76.6711 152.956 77.0495 152.578 77.0495 152.173C77.0495 151.13 73.7224 151.665 73.7224 149.433C73.7224 148.455 74.5835 147.607 76.0057 147.607C76.7494 147.607 77.3104 147.829 77.6757 148.037C77.8975 148.155 78.0802 148.298 78.2237 148.455L77.3757 149.303C77.2713 149.212 77.1538 149.12 77.0103 149.042C76.7624 148.899 76.4232 148.781 76.0057 148.781C75.3403 148.781 75.0271 149.107 75.0271 149.433C75.0271 150.477 78.3542 149.955 78.3542 152.173C78.3542 153.217 77.4539 154.131 75.9404 154.131C75.1054 154.131 74.5052 153.843 74.0877 153.543C73.8398 153.374 73.631 153.178 73.4614 152.956Z" fill="#636D7E"/>
<rect x="28" y="178" width="154" height="39" rx="5.01482" fill="#F5F5F5"/>
<path d="M39.3047 202.5V193.367H40.74V202.5H39.3047ZM42.9524 202.5V196.237H44.2572V197.151C44.3876 196.955 44.5442 196.785 44.7399 196.629C45.0661 196.368 45.5489 196.107 46.2143 196.107C47.6495 196.107 48.6933 197.138 48.6933 198.847V202.5H47.3885V198.847C47.3885 197.92 46.8014 197.346 45.9533 197.346C44.9748 197.346 44.2572 198.064 44.2572 199.108V202.5H42.9524ZM52.0897 202.5L49.6107 196.237H51.0459L52.8073 200.869L54.5687 196.237H56.0039L53.5249 202.5H52.0897ZM56.6532 199.369C56.6532 197.542 58.0884 196.107 59.9151 196.107C61.7417 196.107 63.1769 197.542 63.1769 199.369C63.1769 201.195 61.7417 202.631 59.9151 202.631C58.0884 202.631 56.6532 201.195 56.6532 199.369ZM59.9151 201.391C61.0241 201.391 61.8722 200.556 61.8722 199.369C61.8722 198.181 61.0241 197.346 59.9151 197.346C58.806 197.346 57.958 198.181 57.958 199.369C57.958 200.556 58.806 201.391 59.9151 201.391ZM64.6784 202.5V196.237H65.9831V202.5H64.6784ZM64.5479 194.28C64.5479 193.824 64.9263 193.497 65.3308 193.497C65.7352 193.497 66.1136 193.824 66.1136 194.28C66.1136 194.737 65.7352 195.063 65.3308 195.063C64.9263 195.063 64.5479 194.737 64.5479 194.28ZM72.5069 200.478L73.4202 201.326C73.2245 201.574 73.0027 201.782 72.7417 201.978C72.2851 202.304 71.6327 202.631 70.7455 202.631C68.9188 202.631 67.4836 201.195 67.4836 199.369C67.4836 197.542 68.9188 196.107 70.7455 196.107C71.6327 196.107 72.2851 196.42 72.7156 196.733C72.9635 196.916 73.1853 197.125 73.3549 197.346L72.4416 198.194C72.3242 198.038 72.1807 197.894 72.0111 197.777C71.711 197.568 71.3065 197.346 70.7455 197.346C69.6364 197.346 68.7883 198.181 68.7883 199.369C68.7883 200.556 69.6364 201.391 70.7455 201.391C71.3065 201.391 71.7371 201.182 72.0372 200.934C72.2068 200.804 72.3633 200.647 72.5069 200.478ZM79.2885 200.543L80.0713 201.456C79.9017 201.678 79.6799 201.874 79.4189 202.043C78.9623 202.343 78.323 202.631 77.3966 202.631C75.5699 202.631 74.1347 201.195 74.1347 199.369C74.1347 197.542 75.5699 196.107 77.3313 196.107C79.1058 196.107 80.3975 197.399 80.3975 199.173C80.3975 199.369 80.3714 199.525 80.3583 199.643L80.3323 199.825H75.5047C75.6482 200.673 76.405 201.391 77.4618 201.391C78.0229 201.391 78.4795 201.182 78.7927 200.974C78.9753 200.856 79.1449 200.713 79.2885 200.543ZM75.5047 198.716H79.0275C78.8318 197.868 78.2577 197.281 77.3313 197.281C76.3397 197.281 75.7657 197.868 75.5047 198.716Z" fill="#0F0F0F"/>
<path d="M37.7344 258.551V249.418H41.3877C43.1622 249.418 44.4539 250.723 44.4539 252.354C44.4539 253.985 43.1622 255.289 41.3877 255.289H39.1696V258.551H37.7344ZM39.1696 253.985H41.3877C42.301 253.985 43.0186 253.267 43.0186 252.354C43.0186 251.44 42.301 250.723 41.3877 250.723H39.1696V253.985ZM49.2146 258.551V257.638C49.0842 257.834 48.9145 258.003 48.7188 258.16C48.3665 258.421 47.8707 258.682 47.1923 258.682C45.9397 258.682 45.1047 257.834 45.1047 256.855C45.1047 255.811 45.8223 255.094 46.9313 254.898L49.2146 254.507C49.2146 253.841 48.6927 253.332 47.9099 253.332C47.401 253.332 47.0227 253.554 46.7226 253.763C46.553 253.88 46.4094 254.024 46.279 254.18L45.4309 253.332C45.6005 253.11 45.8093 252.915 46.0572 252.745C46.4747 252.445 47.0749 252.158 47.9099 252.158C49.4756 252.158 50.5194 253.202 50.5194 254.572V258.551H49.2146ZM49.2146 255.746V255.55L47.388 255.876C46.7226 255.994 46.4094 256.32 46.4094 256.725C46.4094 257.181 46.7878 257.573 47.4532 257.573C48.4318 257.573 49.2146 256.79 49.2146 255.746ZM51.8211 261.095V259.856C51.8863 259.895 51.9515 259.921 52.0429 259.96C52.1864 260.013 52.356 260.052 52.6039 260.052C53.1258 260.052 53.5042 259.725 53.7129 259.204L53.9739 258.551L51.4296 252.288H52.8649L54.6263 256.92L56.3877 252.288H57.8229L55.0829 259.269C54.561 260.587 53.8434 261.291 52.7996 261.291C52.4995 261.291 52.2647 261.252 52.0951 261.2L51.8211 261.095ZM58.8636 258.551V252.288H60.1683V253.202C60.2727 253.006 60.4162 252.836 60.5859 252.68C60.886 252.419 61.3296 252.158 61.995 252.158C62.6735 252.158 63.1693 252.419 63.4824 252.68C63.6651 252.836 63.8216 253.006 63.9521 253.202C64.0695 253.006 64.2391 252.836 64.4349 252.68C64.7871 252.419 65.3221 252.158 66.1049 252.158C67.3444 252.158 68.3882 253.202 68.3882 254.833V258.551H67.0835V254.833C67.0835 253.906 66.5094 253.397 65.7787 253.397C64.9307 253.397 64.2783 254.05 64.2783 255.094V258.551H62.9735V254.833C62.9735 253.906 62.3995 253.397 61.6688 253.397C60.8207 253.397 60.1683 254.05 60.1683 255.094V258.551H58.8636ZM74.9787 256.594L75.7615 257.507C75.5919 257.729 75.3701 257.925 75.1092 258.095C74.6525 258.395 74.0132 258.682 73.0868 258.682C71.2602 258.682 69.825 257.246 69.825 255.42C69.825 253.593 71.2602 252.158 73.0216 252.158C74.796 252.158 76.0877 253.45 76.0877 255.224C76.0877 255.42 76.0616 255.576 76.0486 255.694L76.0225 255.876H71.1949C71.3385 256.725 72.0952 257.442 73.1521 257.442C73.7131 257.442 74.1698 257.233 74.4829 257.025C74.6656 256.907 74.8352 256.764 74.9787 256.594ZM71.1949 254.767H74.7177C74.522 253.919 73.948 253.332 73.0216 253.332C72.03 253.332 71.4559 253.919 71.1949 254.767ZM77.5173 258.551V252.288H78.8221V253.202C78.9526 253.006 79.1091 252.836 79.3048 252.68C79.631 252.419 80.1138 252.158 80.7792 252.158C82.2144 252.158 83.2582 253.189 83.2582 254.898V258.551H81.9535V254.898C81.9535 253.972 81.3663 253.397 80.5182 253.397C79.5397 253.397 78.8221 254.115 78.8221 255.159V258.551H77.5173ZM85.6108 256.594V253.528H84.4366V252.288H85.1542C85.5586 252.288 85.7413 252.093 85.7413 251.571V250.201H86.9156V252.288H88.3508V253.528H86.9156V256.464C86.9156 257.116 87.2157 257.442 87.8289 257.442C88.0246 257.442 88.1942 257.403 88.3377 257.351L88.5465 257.246V258.486L88.2725 258.59C88.1029 258.643 87.868 258.682 87.5679 258.682C86.3154 258.682 85.6108 257.964 85.6108 256.594Z" fill="#636D7E"/>
<path d="M226.441 107.283V101.185L238.065 85.3686H244.735V101.948H247.784V107.283H244.735V112.047H239.018V107.283H226.441ZM232.348 101.948H239.018V92.8005L232.348 101.948ZM252.161 96.8024L259.593 85.3686H265.5L259.783 94.1345L260.165 94.0583C260.431 94.0202 260.698 93.9439 261.117 93.9439C265.881 93.9439 270.074 98.1363 270.074 103.282C270.074 108.427 265.881 112.619 259.974 112.619C254.067 112.619 249.874 108.427 249.874 103.282C249.874 101.49 250.446 99.8514 251.018 98.6699C251.361 97.9839 251.742 97.3741 252.161 96.8024ZM259.974 107.474C262.451 107.474 264.166 105.759 264.166 103.282C264.166 100.804 262.451 99.0891 259.974 99.0891C257.497 99.0891 255.782 100.804 255.782 103.282C255.782 105.759 257.497 107.474 259.974 107.474Z" fill="#039635"/>
<path d="M283.72 111.11V101.561H280.35V99.8764H288.855V101.561H285.485V111.11H283.72ZM288.867 107.258C288.867 105.012 290.633 103.246 292.879 103.246C295.126 103.246 296.891 105.012 296.891 107.258C296.891 109.505 295.126 111.27 292.879 111.27C290.633 111.27 288.867 109.505 288.867 107.258ZM292.879 109.746C294.243 109.746 295.286 108.719 295.286 107.258C295.286 105.798 294.243 104.771 292.879 104.771C291.515 104.771 290.472 105.798 290.472 107.258C290.472 108.719 291.515 109.746 292.879 109.746ZM299.46 108.703V104.931H298.016V103.407H298.898C299.396 103.407 299.62 103.166 299.62 102.524V100.839H301.065V103.407H302.83V104.931H301.065V108.542C301.065 109.344 301.434 109.746 302.188 109.746C302.429 109.746 302.637 109.697 302.814 109.633L303.071 109.505V111.029L302.734 111.158C302.525 111.222 302.236 111.27 301.867 111.27C300.326 111.27 299.46 110.388 299.46 108.703ZM309.325 111.11V109.986C309.165 110.227 308.956 110.436 308.715 110.628C308.282 110.949 307.672 111.27 306.838 111.27C305.297 111.27 304.27 110.227 304.27 109.023C304.27 107.74 305.153 106.857 306.517 106.616L309.325 106.135C309.325 105.317 308.683 104.691 307.72 104.691C307.095 104.691 306.629 104.963 306.26 105.22C306.052 105.365 305.875 105.541 305.715 105.734L304.671 104.691C304.88 104.418 305.137 104.177 305.442 103.969C305.955 103.599 306.693 103.246 307.72 103.246C309.646 103.246 310.93 104.53 310.93 106.215V111.11H309.325ZM309.325 107.659V107.419L307.079 107.82C306.26 107.964 305.875 108.366 305.875 108.863C305.875 109.425 306.34 109.906 307.159 109.906C308.362 109.906 309.325 108.943 309.325 107.659ZM313.249 111.11V99.8764H314.854V111.11H313.249ZM321.032 111.11V99.8764H322.797V111.11H321.032ZM325.518 111.11V103.407H327.123V104.53C327.283 104.289 327.476 104.081 327.717 103.888C328.118 103.567 328.712 103.246 329.53 103.246C331.295 103.246 332.579 104.514 332.579 106.616V111.11H330.974V106.616C330.974 105.477 330.252 104.771 329.209 104.771C328.005 104.771 327.123 105.654 327.123 106.937V111.11H325.518ZM336.756 111.11L333.707 103.407H335.473L337.639 109.104L339.805 103.407H341.571L338.522 111.11H336.756ZM342.369 107.258C342.369 105.012 344.134 103.246 346.381 103.246C348.628 103.246 350.393 105.012 350.393 107.258C350.393 109.505 348.628 111.27 346.381 111.27C344.134 111.27 342.369 109.505 342.369 107.258ZM346.381 109.746C347.745 109.746 348.788 108.719 348.788 107.258C348.788 105.798 347.745 104.771 346.381 104.771C345.017 104.771 343.974 105.798 343.974 107.258C343.974 108.719 345.017 109.746 346.381 109.746ZM352.24 111.11V103.407H353.844V111.11H352.24ZM352.079 101C352.079 100.438 352.544 100.037 353.042 100.037C353.539 100.037 354.005 100.438 354.005 101C354.005 101.561 353.539 101.963 353.042 101.963C352.544 101.963 352.079 101.561 352.079 101ZM361.868 108.622L362.991 109.665C362.751 109.97 362.478 110.227 362.157 110.468C361.595 110.869 360.793 111.27 359.702 111.27C357.455 111.27 355.69 109.505 355.69 107.258C355.69 105.012 357.455 103.246 359.702 103.246C360.793 103.246 361.595 103.632 362.125 104.017C362.43 104.241 362.702 104.498 362.911 104.771L361.788 105.814C361.643 105.621 361.467 105.445 361.258 105.3C360.889 105.044 360.392 104.771 359.702 104.771C358.338 104.771 357.294 105.798 357.294 107.258C357.294 108.719 358.338 109.746 359.702 109.746C360.392 109.746 360.921 109.489 361.29 109.184C361.499 109.023 361.691 108.831 361.868 108.622ZM370.209 108.703L371.172 109.826C370.963 110.099 370.69 110.339 370.369 110.548C369.808 110.917 369.021 111.27 367.882 111.27C365.635 111.27 363.87 109.505 363.87 107.258C363.87 105.012 365.635 103.246 367.802 103.246C369.984 103.246 371.573 104.835 371.573 107.018C371.573 107.258 371.541 107.451 371.525 107.595L371.493 107.82H365.555C365.732 108.863 366.662 109.746 367.962 109.746C368.652 109.746 369.214 109.489 369.599 109.232C369.824 109.088 370.032 108.911 370.209 108.703ZM365.555 106.456H369.888C369.647 105.413 368.941 104.691 367.802 104.691C366.582 104.691 365.876 105.413 365.555 106.456ZM372.609 109.826L373.652 108.783C373.813 108.991 373.989 109.168 374.198 109.312C374.567 109.569 375.032 109.826 375.658 109.826C376.557 109.826 377.022 109.36 377.022 108.863C377.022 107.579 372.93 108.237 372.93 105.493C372.93 104.289 373.989 103.246 375.738 103.246C376.653 103.246 377.343 103.519 377.792 103.776C378.065 103.92 378.29 104.097 378.466 104.289L377.423 105.333C377.295 105.22 377.151 105.108 376.974 105.012C376.669 104.835 376.252 104.691 375.738 104.691C374.92 104.691 374.535 105.092 374.535 105.493C374.535 106.777 378.627 106.135 378.627 108.863C378.627 110.147 377.52 111.27 375.658 111.27C374.631 111.27 373.893 110.917 373.379 110.548C373.074 110.339 372.818 110.099 372.609 109.826Z" fill="#636D7E"/>
<rect x="225.869" y="138.098" width="168.498" height="27.08" rx="13.54" fill="#F5F5F5"/>
<path d="M248.25 156.348L245.712 153.81M247.083 150.514C247.083 153.092 244.994 155.181 242.417 155.181C239.839 155.181 237.75 153.092 237.75 150.514C237.75 147.937 239.839 145.848 242.417 145.848C244.994 145.848 247.083 147.937 247.083 150.514Z" stroke="#9DA4AE" stroke-width="1.16667" stroke-linecap="round" stroke-linejoin="round"/>
<rect x="722.336" y="196.27" width="496.467" height="16.0474" rx="8.02371" transform="rotate(-180 722.336 196.27)" fill="url(#paint0_linear_1_4106)"/>
<rect x="226.371" y="218.836" width="495.464" height="38.6581" rx="9.49852" fill="#F5F5F5"/>
<rect x="226.371" y="218.836" width="495.464" height="38.6581" rx="9.49852" stroke="#F5F5F5" stroke-width="1.00296"/>
<path d="M253.702 242.665L251.164 234.943H252.433L254.308 240.735L256.129 234.943H257.342L259.163 240.735L261.038 234.943H262.307L259.769 242.665H258.556L256.735 236.873L254.915 242.665H253.702ZM265.837 242.665V241.893C265.727 242.059 265.584 242.202 265.418 242.334C265.12 242.555 264.701 242.776 264.127 242.776C263.068 242.776 262.362 242.059 262.362 241.231C262.362 240.349 262.969 239.742 263.907 239.576L265.837 239.245C265.837 238.683 265.396 238.252 264.734 238.252C264.304 238.252 263.984 238.44 263.73 238.616C263.587 238.716 263.465 238.837 263.355 238.97L262.638 238.252C262.781 238.065 262.958 237.899 263.167 237.756C263.521 237.502 264.028 237.259 264.734 237.259C266.058 237.259 266.941 238.142 266.941 239.3V242.665H265.837ZM265.837 240.293V240.128L264.293 240.404C263.73 240.503 263.465 240.779 263.465 241.121C263.465 241.507 263.785 241.838 264.348 241.838C265.175 241.838 265.837 241.176 265.837 240.293ZM272.452 242.665V241.893C272.341 242.059 272.198 242.202 272.021 242.334C271.724 242.555 271.26 242.776 270.631 242.776C269.307 242.776 268.149 241.617 268.149 240.018C268.149 238.418 269.307 237.259 270.631 237.259C271.26 237.259 271.724 237.48 272.021 237.701C272.198 237.833 272.341 237.977 272.452 238.142V234.943H273.555V242.665H272.452ZM270.852 241.728C271.735 241.728 272.452 241.022 272.452 240.018C272.452 239.014 271.735 238.308 270.852 238.308C269.969 238.308 269.252 239.014 269.252 240.018C269.252 241.022 269.969 241.728 270.852 241.728ZM279.187 241.011L279.849 241.783C279.705 241.97 279.518 242.136 279.297 242.279C278.911 242.533 278.37 242.776 277.587 242.776C276.043 242.776 274.829 241.562 274.829 240.018C274.829 238.473 276.043 237.259 277.532 237.259C279.032 237.259 280.125 238.352 280.125 239.852C280.125 240.018 280.103 240.15 280.091 240.249L280.069 240.404H275.987C276.109 241.121 276.749 241.728 277.642 241.728C278.117 241.728 278.503 241.551 278.768 241.375C278.922 241.275 279.065 241.154 279.187 241.011ZM275.987 239.466H278.966C278.801 238.749 278.315 238.252 277.532 238.252C276.693 238.252 276.208 238.749 275.987 239.466ZM285.302 242.665L282.764 234.943H284.033L285.909 240.735L287.729 234.943H288.942L290.763 240.735L292.638 234.943H293.907L291.37 242.665H290.156L288.336 236.873L286.515 242.665H285.302ZM297.438 242.665V241.893C297.327 242.059 297.184 242.202 297.018 242.334C296.72 242.555 296.301 242.776 295.728 242.776C294.668 242.776 293.962 242.059 293.962 241.231C293.962 240.349 294.569 239.742 295.507 239.576L297.438 239.245C297.438 238.683 296.996 238.252 296.334 238.252C295.904 238.252 295.584 238.44 295.33 238.616C295.187 238.716 295.066 238.837 294.955 238.97L294.238 238.252C294.382 238.065 294.558 237.899 294.768 237.756C295.121 237.502 295.628 237.259 296.334 237.259C297.658 237.259 298.541 238.142 298.541 239.3V242.665H297.438ZM297.438 240.293V240.128L295.893 240.404C295.33 240.503 295.066 240.779 295.066 241.121C295.066 241.507 295.386 241.838 295.948 241.838C296.776 241.838 297.438 241.176 297.438 240.293ZM300.08 242.665V237.37H301.184V238.087C301.305 237.943 301.437 237.8 301.592 237.679C301.856 237.469 302.254 237.259 302.783 237.259H303.059V238.418L302.916 238.396C302.827 238.385 302.739 238.363 302.618 238.363C301.856 238.363 301.184 239.025 301.184 239.962V242.665H300.08ZM307.975 241.011L308.637 241.783C308.494 241.97 308.306 242.136 308.085 242.279C307.699 242.533 307.159 242.776 306.375 242.776C304.831 242.776 303.617 241.562 303.617 240.018C303.617 238.473 304.831 237.259 306.32 237.259C307.821 237.259 308.913 238.352 308.913 239.852C308.913 240.018 308.891 240.15 308.88 240.249L308.858 240.404H304.776C304.897 241.121 305.537 241.728 306.43 241.728C306.905 241.728 307.291 241.551 307.556 241.375C307.71 241.275 307.854 241.154 307.975 241.011ZM304.776 239.466H307.754C307.589 238.749 307.103 238.252 306.32 238.252C305.482 238.252 304.996 238.749 304.776 239.466ZM310.122 242.665V237.37H311.225V238.142C311.335 237.977 311.468 237.833 311.633 237.701C311.909 237.48 312.317 237.259 312.88 237.259C314.093 237.259 314.976 238.131 314.976 239.576V242.665H313.873V239.576C313.873 238.793 313.376 238.308 312.659 238.308C311.832 238.308 311.225 238.914 311.225 239.797V242.665H310.122Z" fill="#636D7E"/>
<path d="M342.764 241.507H346.515V242.665H341.33C341.33 239.19 345.301 239.091 345.301 237.204C345.301 236.487 344.805 235.991 343.922 235.991C343.337 235.991 342.973 236.255 342.742 236.52C342.609 236.675 342.51 236.851 342.433 237.039L341.44 236.598C341.539 236.267 341.705 235.969 341.914 235.715C342.278 235.274 342.896 234.832 343.922 234.832C345.467 234.832 346.515 235.88 346.515 237.204C346.515 239.466 343.646 239.797 342.764 241.507ZM347.338 241.617L348.165 240.79C348.286 240.955 348.441 241.099 348.628 241.231C348.937 241.452 349.39 241.673 350.041 241.673C351.044 241.673 351.585 241.121 351.585 240.404C351.585 239.742 351.044 239.19 350.041 239.19H349.213V238.032H350.041C350.879 238.032 351.309 237.601 351.309 236.984C351.309 236.366 350.879 235.936 350.041 235.936C349.511 235.936 349.114 236.134 348.816 236.322C348.65 236.443 348.507 236.564 348.386 236.708L347.558 235.88C347.746 235.693 347.955 235.516 348.198 235.362C348.628 235.097 349.235 234.832 350.041 234.832C351.585 234.832 352.523 235.77 352.523 236.873C352.523 237.524 352.236 237.943 351.938 238.208C351.773 238.363 351.574 238.484 351.364 238.583C351.629 238.683 351.872 238.815 352.082 238.981C352.435 239.278 352.799 239.742 352.799 240.459C352.799 241.739 351.751 242.776 350.041 242.776C349.114 242.776 348.463 242.5 348.011 242.202C347.746 242.037 347.525 241.838 347.338 241.617ZM353.355 244.982L356.665 234.832H357.658L354.348 244.982H353.355ZM363.446 238.804C363.446 236.873 362.508 235.936 361.46 235.936C360.412 235.936 359.474 236.873 359.474 238.804C359.474 240.735 360.412 241.673 361.46 241.673C362.508 241.673 363.446 240.735 363.446 238.804ZM361.46 242.776C359.695 242.776 358.261 241.33 358.261 238.804C358.261 236.278 359.695 234.832 361.46 234.832C363.225 234.832 364.66 236.278 364.66 238.804C364.66 241.33 363.225 242.776 361.46 242.776ZM366.319 238.473L368.581 234.943H369.905L368.14 237.646L368.261 237.624C368.338 237.613 368.471 237.59 368.636 237.59C370.125 237.59 371.284 238.749 371.284 240.183C371.284 241.617 370.125 242.776 368.526 242.776C366.926 242.776 365.768 241.617 365.768 240.183C365.768 239.742 365.9 239.323 366.043 239.003C366.121 238.815 366.22 238.639 366.319 238.473ZM366.981 240.183C366.981 241.011 367.643 241.673 368.526 241.673C369.408 241.673 370.07 241.011 370.07 240.183C370.07 239.356 369.408 238.694 368.526 238.694C367.643 238.694 366.981 239.356 366.981 240.183ZM371.779 244.982L375.088 234.832H376.081L372.772 244.982H371.779ZM377.898 241.507H381.649V242.665H376.464C376.464 239.19 380.435 239.091 380.435 237.204C380.435 236.487 379.939 235.991 379.056 235.991C378.472 235.991 378.107 236.255 377.876 236.52C377.743 236.675 377.644 236.851 377.567 237.039L376.574 236.598C376.673 236.267 376.839 235.969 377.048 235.715C377.412 235.274 378.03 234.832 379.056 234.832C380.601 234.832 381.649 235.88 381.649 237.204C381.649 239.466 378.78 239.797 377.898 241.507ZM388.043 238.804C388.043 236.873 387.105 235.936 386.057 235.936C385.009 235.936 384.071 236.873 384.071 238.804C384.071 240.735 385.009 241.673 386.057 241.673C387.105 241.673 388.043 240.735 388.043 238.804ZM386.057 242.776C384.292 242.776 382.858 241.33 382.858 238.804C382.858 236.278 384.292 234.832 386.057 234.832C387.822 234.832 389.257 236.278 389.257 238.804C389.257 241.33 387.822 242.776 386.057 242.776ZM391.689 241.507H395.44V242.665H390.254C390.254 239.19 394.226 239.091 394.226 237.204C394.226 236.487 393.73 235.991 392.847 235.991C392.262 235.991 391.898 236.255 391.667 236.52C391.534 236.675 391.435 236.851 391.358 237.039L390.365 236.598C390.464 236.267 390.629 235.969 390.839 235.715C391.203 235.274 391.821 234.832 392.847 234.832C394.392 234.832 395.44 235.88 395.44 237.204C395.44 239.466 392.571 239.797 391.689 241.507ZM396.262 241.617L397.09 240.79C397.211 240.955 397.366 241.099 397.553 241.231C397.862 241.452 398.314 241.673 398.965 241.673C399.969 241.673 400.51 241.121 400.51 240.404C400.51 239.742 399.969 239.19 398.965 239.19H398.138V238.032H398.965C399.804 238.032 400.234 237.601 400.234 236.984C400.234 236.366 399.804 235.936 398.965 235.936C398.436 235.936 398.039 236.134 397.741 236.322C397.575 236.443 397.432 236.564 397.31 236.708L396.483 235.88C396.671 235.693 396.88 235.516 397.123 235.362C397.553 235.097 398.16 234.832 398.965 234.832C400.51 234.832 401.448 235.77 401.448 236.873C401.448 237.524 401.161 237.943 400.863 238.208C400.697 238.363 400.499 238.484 400.289 238.583C400.554 238.683 400.797 238.815 401.006 238.981C401.359 239.278 401.724 239.742 401.724 240.459C401.724 241.739 400.675 242.776 398.965 242.776C398.039 242.776 397.388 242.5 396.935 242.202C396.671 242.037 396.45 241.838 396.262 241.617Z" fill="#636D7E"/>
<rect x="427.943" y="229.367" width="32.1918" height="17.5959" rx="4.61712" fill="#BEF4D2"/>
<path d="M435.462 241.665V235.201H438.048C439.304 235.201 440.218 236.125 440.218 237.279C440.218 238.433 439.304 239.357 438.048 239.357H436.478V241.665H435.462ZM436.478 238.433H438.048C438.694 238.433 439.202 237.925 439.202 237.279C439.202 236.633 438.694 236.125 438.048 236.125H436.478V238.433ZM443.588 241.665V241.019C443.495 241.157 443.375 241.277 443.237 241.388C442.987 241.573 442.636 241.758 442.156 241.758C441.27 241.758 440.679 241.157 440.679 240.465C440.679 239.726 441.187 239.218 441.972 239.08L443.588 238.803C443.588 238.332 443.218 237.972 442.664 237.972C442.304 237.972 442.036 238.129 441.824 238.276C441.704 238.359 441.602 238.461 441.51 238.572L440.91 237.972C441.03 237.815 441.177 237.676 441.353 237.556C441.648 237.344 442.073 237.14 442.664 237.14C443.772 237.14 444.511 237.879 444.511 238.849V241.665H443.588ZM443.588 239.68V239.541L442.295 239.772C441.824 239.855 441.602 240.086 441.602 240.372C441.602 240.696 441.87 240.973 442.341 240.973C443.033 240.973 443.588 240.419 443.588 239.68ZM445.846 241.665V237.233H446.769V241.665H445.846ZM445.753 235.848C445.753 235.524 446.021 235.294 446.307 235.294C446.594 235.294 446.861 235.524 446.861 235.848C446.861 236.171 446.594 236.402 446.307 236.402C446.021 236.402 445.753 236.171 445.753 235.848ZM451.432 241.665V241.019C451.34 241.157 451.22 241.277 451.072 241.388C450.823 241.573 450.435 241.758 449.909 241.758C448.801 241.758 447.831 240.788 447.831 239.449C447.831 238.11 448.801 237.14 449.909 237.14C450.435 237.14 450.823 237.325 451.072 237.51C451.22 237.621 451.34 237.741 451.432 237.879V235.201H452.356V241.665H451.432ZM450.093 240.88C450.832 240.88 451.432 240.289 451.432 239.449C451.432 238.609 450.832 238.018 450.093 238.018C449.355 238.018 448.754 238.609 448.754 239.449C448.754 240.289 449.355 240.88 450.093 240.88Z" fill="#188B42"/>
<path d="M490.32 239.687V238.583H493.133V241.286C492.902 241.562 492.615 241.816 492.284 242.037C491.721 242.423 490.894 242.776 489.824 242.776C487.507 242.776 485.742 241.011 485.742 238.804C485.742 236.598 487.507 234.832 489.824 234.832C490.883 234.832 491.655 235.196 492.185 235.583C492.482 235.803 492.747 236.046 492.968 236.322L492.196 237.094C492.041 236.884 491.843 236.686 491.611 236.52C491.214 236.222 490.618 235.936 489.824 235.936C488.224 235.936 486.955 237.204 486.955 238.804C486.955 240.404 488.224 241.673 489.824 241.673C490.519 241.673 491.037 241.474 491.39 241.264C491.6 241.143 491.776 241 491.92 240.845V239.687H490.32ZM494.84 242.665V234.943H495.943V238.142C496.054 237.977 496.186 237.833 496.351 237.701C496.627 237.48 497.035 237.259 497.598 237.259C498.812 237.259 499.694 238.131 499.694 239.576V242.665H498.591V239.576C498.591 238.793 498.095 238.308 497.378 238.308C496.55 238.308 495.943 238.914 495.943 239.797V242.665H494.84ZM505.155 240.955L505.927 241.673C505.762 241.882 505.574 242.059 505.354 242.224C504.968 242.5 504.416 242.776 503.666 242.776C502.121 242.776 500.908 241.562 500.908 240.018C500.908 238.473 502.121 237.259 503.666 237.259C504.416 237.259 504.968 237.524 505.332 237.789C505.541 237.943 505.729 238.12 505.872 238.308L505.1 239.025C505.001 238.892 504.879 238.771 504.736 238.672C504.482 238.495 504.14 238.308 503.666 238.308C502.728 238.308 502.011 239.014 502.011 240.018C502.011 241.022 502.728 241.728 503.666 241.728C504.14 241.728 504.504 241.551 504.758 241.342C504.901 241.231 505.034 241.099 505.155 240.955ZM508.735 241.617L509.562 240.79C509.684 240.955 509.838 241.099 510.026 241.231C510.335 241.452 510.787 241.673 511.438 241.673C512.442 241.673 512.983 241.121 512.983 240.404C512.983 239.742 512.442 239.19 511.438 239.19H510.611V238.032H511.438C512.277 238.032 512.707 237.601 512.707 236.984C512.707 236.366 512.277 235.936 511.438 235.936C510.908 235.936 510.511 236.134 510.213 236.322C510.048 236.443 509.905 236.564 509.783 236.708L508.956 235.88C509.143 235.693 509.353 235.516 509.596 235.362C510.026 235.097 510.633 234.832 511.438 234.832C512.983 234.832 513.92 235.77 513.92 236.873C513.92 237.524 513.634 237.943 513.336 238.208C513.17 238.363 512.972 238.484 512.762 238.583C513.027 238.683 513.269 238.815 513.479 238.981C513.832 239.278 514.196 239.742 514.196 240.459C514.196 241.739 513.148 242.776 511.438 242.776C510.511 242.776 509.86 242.5 509.408 242.202C509.143 242.037 508.923 241.838 508.735 241.617ZM520.545 238.804C520.545 236.873 519.607 235.936 518.559 235.936C517.511 235.936 516.573 236.873 516.573 238.804C516.573 240.735 517.511 241.673 518.559 241.673C519.607 241.673 520.545 240.735 520.545 238.804ZM518.559 242.776C516.794 242.776 515.359 241.33 515.359 238.804C515.359 236.278 516.794 234.832 518.559 234.832C520.324 234.832 521.758 236.278 521.758 238.804C521.758 241.33 520.324 242.776 518.559 242.776ZM528.162 238.804C528.162 236.873 527.224 235.936 526.176 235.936C525.128 235.936 524.19 236.873 524.19 238.804C524.19 240.735 525.128 241.673 526.176 241.673C527.224 241.673 528.162 240.735 528.162 238.804ZM526.176 242.776C524.411 242.776 522.977 241.33 522.977 238.804C522.977 236.278 524.411 234.832 526.176 234.832C527.941 234.832 529.375 236.278 529.375 238.804C529.375 241.33 527.941 242.776 526.176 242.776ZM535.779 238.804C535.779 236.873 534.841 235.936 533.793 235.936C532.745 235.936 531.807 236.873 531.807 238.804C531.807 240.735 532.745 241.673 533.793 241.673C534.841 241.673 535.779 240.735 535.779 238.804ZM533.793 242.776C532.028 242.776 530.594 241.33 530.594 238.804C530.594 236.278 532.028 234.832 533.793 234.832C535.558 234.832 536.993 236.278 536.993 238.804C536.993 241.33 535.558 242.776 533.793 242.776ZM538.818 242.776C538.432 242.776 538.101 242.445 538.101 242.059C538.101 241.673 538.432 241.342 538.818 241.342C539.204 241.342 539.535 241.673 539.535 242.059C539.535 242.445 539.204 242.776 538.818 242.776ZM545.821 238.804C545.821 236.873 544.883 235.936 543.835 235.936C542.787 235.936 541.849 236.873 541.849 238.804C541.849 240.735 542.787 241.673 543.835 241.673C544.883 241.673 545.821 240.735 545.821 238.804ZM543.835 242.776C542.069 242.776 540.635 241.33 540.635 238.804C540.635 236.278 542.069 234.832 543.835 234.832C545.6 234.832 547.034 236.278 547.034 238.804C547.034 241.33 545.6 242.776 543.835 242.776ZM553.438 238.804C553.438 236.873 552.5 235.936 551.452 235.936C550.404 235.936 549.466 236.873 549.466 238.804C549.466 240.735 550.404 241.673 551.452 241.673C552.5 241.673 553.438 240.735 553.438 238.804ZM551.452 242.776C549.687 242.776 548.252 241.33 548.252 238.804C548.252 236.278 549.687 234.832 551.452 234.832C553.217 234.832 554.651 236.278 554.651 238.804C554.651 241.33 553.217 242.776 551.452 242.776Z" fill="#636D7E"/>
<rect x="225.869" y="280.061" width="496.467" height="16.0474" rx="8.02371" fill="url(#paint1_linear_1_4106)"/>
<rect x="722.336" y="334.221" width="496.467" height="16.0474" rx="8.02371" transform="rotate(-180 722.336 334.221)" fill="url(#paint2_linear_1_4106)"/>
<rect x="722.336" y="372.334" width="496.467" height="16.0474" rx="8.02371" transform="rotate(-180 722.336 372.334)" fill="url(#paint3_linear_1_4106)"/>
<rect x="722.336" y="410.447" width="496.467" height="16.0474" rx="8.02371" transform="rotate(-180 722.336 410.447)" fill="url(#paint4_linear_1_4106)"/>
<rect x="225.869" y="432.512" width="496.467" height="16.0474" rx="8.02371" fill="url(#paint5_linear_1_4106)"/>
<defs>
<linearGradient id="paint0_linear_1_4106" x1="947.466" y1="193.643" x2="970.569" y2="212.317" gradientUnits="userSpaceOnUse">
<stop stop-color="#F5F5F5"/>
<stop offset="1" stop-color="#F5F5F5" stop-opacity="0.6"/>
</linearGradient>
<linearGradient id="paint1_linear_1_4106" x1="451" y1="277.435" x2="474.103" y2="296.109" gradientUnits="userSpaceOnUse">
<stop stop-color="#F5F5F5"/>
<stop offset="1" stop-color="#F5F5F5" stop-opacity="0.6"/>
</linearGradient>
<linearGradient id="paint2_linear_1_4106" x1="947.466" y1="331.595" x2="970.569" y2="350.269" gradientUnits="userSpaceOnUse">
<stop stop-color="#F5F5F5"/>
<stop offset="1" stop-color="#F5F5F5" stop-opacity="0.6"/>
</linearGradient>
<linearGradient id="paint3_linear_1_4106" x1="947.466" y1="369.707" x2="970.569" y2="388.381" gradientUnits="userSpaceOnUse">
<stop stop-color="#F5F5F5"/>
<stop offset="1" stop-color="#F5F5F5" stop-opacity="0.6"/>
</linearGradient>
<linearGradient id="paint4_linear_1_4106" x1="947.466" y1="407.82" x2="970.569" y2="426.494" gradientUnits="userSpaceOnUse">
<stop stop-color="#F5F5F5"/>
<stop offset="1" stop-color="#F5F5F5" stop-opacity="0.6"/>
</linearGradient>
<linearGradient id="paint5_linear_1_4106" x1="451" y1="429.885" x2="474.103" y2="448.559" gradientUnits="userSpaceOnUse">
<stop stop-color="#F5F5F5"/>
<stop offset="1" stop-color="#F5F5F5" stop-opacity="0.6"/>
</linearGradient>
</defs>
</svg>
