<svg width="87" height="36" viewBox="0 0 87 36" fill="none" xmlns="http://www.w3.org/2000/svg">
<path fill-rule="evenodd" clip-rule="evenodd" d="M86.5001 18.5973C86.5001 12.4461 83.5207 7.59253 77.8261 7.59253C72.1075 7.59253 68.6475 12.4461 68.6475 18.5492C68.6475 25.7816 72.7322 29.4338 78.595 29.4338C81.4543 29.4338 83.6168 28.785 85.2506 27.872V23.0664C83.6168 23.8834 81.7426 24.3879 79.3638 24.3879C77.0331 24.3879 74.9668 23.571 74.7025 20.7357H86.452C86.452 20.4234 86.5001 19.1739 86.5001 18.5973ZM74.6304 16.3146C74.6304 13.5995 76.2883 12.4702 77.802 12.4702C79.2677 12.4702 80.8295 13.5995 80.8295 16.3146H74.6304Z" fill="#635BFF"/>
<path fill-rule="evenodd" clip-rule="evenodd" d="M59.3733 7.59253C57.0186 7.59253 55.5049 8.69781 54.6639 9.4667L54.3515 7.97697H49.0654V35.9934L55.0724 34.7199L55.0964 27.92C55.9614 28.5448 57.2349 29.4338 59.3493 29.4338C63.6503 29.4338 67.5668 25.9738 67.5668 18.357C67.5428 11.3889 63.5782 7.59253 59.3733 7.59253ZM57.9317 24.1477C56.514 24.1477 55.6731 23.6431 55.0964 23.0184L55.0724 14.1041C55.6971 13.4073 56.5621 12.9267 57.9317 12.9267C60.1182 12.9267 61.632 15.3775 61.632 18.5252C61.632 21.7449 60.1422 24.1477 57.9317 24.1477Z" fill="#635BFF"/>
<path fill-rule="evenodd" clip-rule="evenodd" d="M40.7998 6.17514L46.8308 4.87764V0L40.7998 1.27347V6.17514Z" fill="#635BFF"/>
<path d="M46.8308 8.00134H40.7998V29.0256H46.8308V8.00134Z" fill="#635BFF"/>
<path fill-rule="evenodd" clip-rule="evenodd" d="M34.3362 9.7791L33.9517 8.00105H28.7617V29.0254H34.7687V14.7769C36.1863 12.9267 38.5891 13.2631 39.3339 13.5274V8.00105C38.5651 7.71272 35.7538 7.1841 34.3362 9.7791Z" fill="#635BFF"/>
<path fill-rule="evenodd" clip-rule="evenodd" d="M22.3214 2.78711L16.4586 4.03655L16.4346 23.2828C16.4346 26.8389 19.1017 29.4579 22.6578 29.4579C24.628 29.4579 26.0697 29.0975 26.8626 28.665V23.7874C26.0937 24.0997 22.2973 25.205 22.2973 21.6489V13.1191H26.8626V8.00114H22.2973L22.3214 2.78711Z" fill="#635BFF"/>
<path fill-rule="evenodd" clip-rule="evenodd" d="M6.07903 14.1041C6.07903 13.167 6.84792 12.8066 8.12139 12.8066C9.9475 12.8066 12.2542 13.3592 14.0803 14.3443V8.69781C12.086 7.90489 10.1157 7.59253 8.12139 7.59253C3.24375 7.59253 0 10.1395 0 14.3924C0 21.0241 9.13056 19.9668 9.13056 22.8261C9.13056 23.9314 8.16944 24.2918 6.82389 24.2918C4.82958 24.2918 2.28264 23.4749 0.264305 22.3696V28.0882C2.49889 29.0493 4.7575 29.4578 6.82389 29.4578C11.8217 29.4578 15.2576 26.9829 15.2576 22.682C15.2336 15.5217 6.07903 16.7952 6.07903 14.1041Z" fill="#635BFF"/>
</svg>
