<svg width="39" height="40" viewBox="0 0 39 40" fill="none" xmlns="http://www.w3.org/2000/svg">
<path d="M14.625 3.37204C10.3675 3.37204 6.90625 6.83329 6.90625 11.0908C6.90625 15.267 10.1725 18.647 14.43 18.7933C14.56 18.777 14.69 18.777 14.7875 18.7933C14.82 18.7933 14.8362 18.7933 14.8687 18.7933C14.885 18.7933 14.885 18.7933 14.9013 18.7933C19.0613 18.647 22.3275 15.267 22.3438 11.0908C22.3438 6.83329 18.8825 3.37204 14.625 3.37204Z" fill="white"/>
<path d="M22.8796 23.1158C18.3458 20.0933 10.9521 20.0933 6.38582 23.1158C4.32207 24.497 3.18457 26.3658 3.18457 28.3645C3.18457 30.3633 4.32207 32.2158 6.36957 33.5808C8.64457 35.1083 11.6346 35.872 14.6246 35.872C17.6146 35.872 20.6046 35.1083 22.8796 33.5808C24.9271 32.1995 26.0646 30.347 26.0646 28.332C26.0483 26.3333 24.9271 24.4808 22.8796 23.1158Z" fill="white"/>
<path d="M32.4837 12.0495C32.7437 15.2021 30.5012 17.9646 27.3975 18.3383C27.3812 18.3383 27.3812 18.3383 27.365 18.3383H27.3162C27.2187 18.3383 27.1212 18.3383 27.04 18.3708C25.4637 18.452 24.0175 17.9483 22.9287 17.022C24.6025 15.527 25.5612 13.2845 25.3662 10.847C25.2525 9.5308 24.7975 8.3283 24.115 7.30455C24.7325 6.9958 25.4475 6.8008 26.1787 6.7358C29.3637 6.45955 32.2075 8.83205 32.4837 12.0495Z" fill="white"/>
<path d="M35.7334 27.0808C35.6034 28.657 34.5959 30.022 32.9059 30.9483C31.2809 31.842 29.2334 32.2645 27.2021 32.2158C28.3721 31.1595 29.0546 29.8433 29.1846 28.4458C29.3471 26.4308 28.3884 24.497 26.4709 22.9533C25.3822 22.092 24.1146 21.4095 22.7334 20.9058C26.3246 19.8658 30.8421 20.5645 33.6209 22.807C35.1159 24.0095 35.8796 25.5208 35.7334 27.0808Z" fill="white"/>
</svg>
