<svg width="39" height="40" viewBox="0 0 39 40" fill="none" xmlns="http://www.w3.org/2000/svg">
<path d="M25.6425 3.37201H13.3575C7.215 3.37201 5.6875 5.01326 5.6875 11.562V29.8595C5.6875 34.182 8.06 35.2058 10.9363 32.1183L10.9525 32.102C12.285 30.6883 14.3163 30.802 15.47 32.3458L17.1112 34.5395C18.4275 36.2783 20.5563 36.2783 21.8725 34.5395L23.5138 32.3458C24.6838 30.7858 26.715 30.672 28.0475 32.102C30.94 35.1895 33.2962 34.1658 33.2962 29.8433V11.562C33.3125 5.01326 31.785 3.37201 25.6425 3.37201ZM12.6425 19.622C11.7488 19.622 11.0175 18.8908 11.0175 17.997C11.0175 17.1033 11.7488 16.372 12.6425 16.372C13.5363 16.372 14.2675 17.1033 14.2675 17.997C14.2675 18.8908 13.5363 19.622 12.6425 19.622ZM12.6425 13.122C11.7488 13.122 11.0175 12.3908 11.0175 11.497C11.0175 10.6033 11.7488 9.87201 12.6425 9.87201C13.5363 9.87201 14.2675 10.6033 14.2675 11.497C14.2675 12.3908 13.5363 13.122 12.6425 13.122ZM26.3737 19.2158H17.4362C16.77 19.2158 16.2175 18.6633 16.2175 17.997C16.2175 17.3308 16.77 16.7783 17.4362 16.7783H26.3737C27.04 16.7783 27.5925 17.3308 27.5925 17.997C27.5925 18.6633 27.04 19.2158 26.3737 19.2158ZM26.3737 12.7158H17.4362C16.77 12.7158 16.2175 12.1633 16.2175 11.497C16.2175 10.8308 16.77 10.2783 17.4362 10.2783H26.3737C27.04 10.2783 27.5925 10.8308 27.5925 11.497C27.5925 12.1633 27.04 12.7158 26.3737 12.7158Z" fill="white"/>
</svg>
