<svg width="39" height="40" viewBox="0 0 39 40" fill="none" xmlns="http://www.w3.org/2000/svg">
<g id="vuesax/bold/wallet-3">
<g id="wallet-3">
<path id="Vector" d="M35.7508 20.6295V23.977C35.7508 24.887 35.0033 25.6345 34.0771 25.6345H30.9408C29.1858 25.6345 27.5771 24.3508 27.4308 22.5958C27.3333 21.572 27.7233 20.6133 28.4058 19.947C29.0071 19.3295 29.8358 18.972 30.7458 18.972H34.0771C35.0033 18.972 35.7508 19.7195 35.7508 20.6295Z" fill="white"/>
<path id="Vector_2" d="M24.9925 22.8071C24.8463 21.1008 25.4638 19.4271 26.6987 18.2083C27.7388 17.1521 29.185 16.5346 30.745 16.5346H31.6712C32.1262 16.5346 32.5 16.1608 32.435 15.7058C31.9962 12.5533 29.2663 10.1158 26 10.1158H9.75C6.15875 10.1158 3.25 13.0246 3.25 16.6158V27.9908C3.25 31.5821 6.15875 34.4908 9.75 34.4908H26C29.2825 34.4908 31.9962 32.0533 32.435 28.9008C32.5 28.4458 32.1262 28.0721 31.6712 28.0721H30.94C27.8525 28.0721 25.2525 25.7646 24.9925 22.8071ZM21.125 19.4596H11.375C10.7087 19.4596 10.1562 18.9233 10.1562 18.2408C10.1562 17.5583 10.7087 17.0221 11.375 17.0221H21.125C21.7913 17.0221 22.3438 17.5746 22.3438 18.2408C22.3438 18.9071 21.7913 19.4596 21.125 19.4596Z" fill="white"/>
<path id="Vector_3" d="M23.0908 6.58955C23.5133 7.0283 23.1396 7.6783 22.5221 7.6783H9.79833C8.02708 7.6783 6.36957 8.1983 4.98832 9.09205C4.35457 9.4983 3.49332 9.05955 3.80207 8.3608C4.71207 6.23205 6.84082 4.7533 9.29457 4.7533H18.4271C20.3121 4.7533 21.9858 5.41955 23.0908 6.58955Z" fill="white"/>
</g>
</g>
</svg>
